<?xml version="1.0" encoding="UTF-8" standalone="no"?>
<svg
   xmlns:dc="http://purl.org/dc/elements/1.1/"
   xmlns:cc="http://creativecommons.org/ns#"
   xmlns:rdf="http://www.w3.org/1999/02/22-rdf-syntax-ns#"
   xmlns:svg="http://www.w3.org/2000/svg"
   xmlns="http://www.w3.org/2000/svg"
   xmlns:sodipodi="http://sodipodi.sourceforge.net/DTD/sodipodi-0.dtd"
   xmlns:inkscape="http://www.inkscape.org/namespaces/inkscape"
   width="64pt"
   height="64pt"
   viewBox="0 0 22.577778 22.577778"
   version="1.1"
   id="svg831"
   inkscape:version="1.0 (4035a4fb49, 2020-05-01)"
   sodipodi:docname="26 - Corns.svg"
   inkscape:export-filename="E:\Project\27-3-2022\4 - Icon-Icons\016 - Vegetables\Send\4 - Filledline\26 - Corns.png"
   inkscape:export-xdpi="576"
   inkscape:export-ydpi="576">
  <defs
     id="defs825">
    <pattern
       id="EMFhbasepattern"
       patternUnits="userSpaceOnUse"
       width="6"
       height="6"
       x="0"
       y="0" />
    <pattern
       id="EMFhbasepattern-9"
       patternUnits="userSpaceOnUse"
       width="6"
       height="6"
       x="0"
       y="0" />
    <pattern
       id="EMFhbasepattern-0"
       patternUnits="userSpaceOnUse"
       width="6"
       height="6"
       x="0"
       y="0" />
    <pattern
       id="EMFhbasepattern-7"
       patternUnits="userSpaceOnUse"
       width="6"
       height="6"
       x="0"
       y="0" />
    <pattern
       id="EMFhbasepattern-2"
       patternUnits="userSpaceOnUse"
       width="6"
       height="6"
       x="0"
       y="0" />
    <pattern
       id="EMFhbasepattern-98"
       patternUnits="userSpaceOnUse"
       width="6"
       height="6"
       x="0"
       y="0" />
    <pattern
       id="EMFhbasepattern-6"
       patternUnits="userSpaceOnUse"
       width="6"
       height="6"
       x="0"
       y="0" />
    <pattern
       id="EMFhbasepattern-01"
       patternUnits="userSpaceOnUse"
       width="6"
       height="6"
       x="0"
       y="0" />
    <pattern
       id="EMFhbasepattern-07"
       patternUnits="userSpaceOnUse"
       width="6"
       height="6"
       x="0"
       y="0" />
    <pattern
       id="EMFhbasepattern-8"
       patternUnits="userSpaceOnUse"
       width="6"
       height="6"
       x="0"
       y="0" />
    <pattern
       id="EMFhbasepattern-4"
       patternUnits="userSpaceOnUse"
       width="6"
       height="6"
       x="0"
       y="0" />
    <pattern
       id="EMFhbasepattern-40"
       patternUnits="userSpaceOnUse"
       width="6"
       height="6"
       x="0"
       y="0" />
    <pattern
       id="EMFhbasepattern-08"
       patternUnits="userSpaceOnUse"
       width="6"
       height="6"
       x="0"
       y="0" />
    <pattern
       id="EMFhbasepattern-04"
       patternUnits="userSpaceOnUse"
       width="6"
       height="6"
       x="0"
       y="0" />
    <pattern
       id="EMFhbasepattern-014"
       patternUnits="userSpaceOnUse"
       width="6"
       height="6"
       x="0"
       y="0" />
    <pattern
       id="EMFhbasepattern-27"
       patternUnits="userSpaceOnUse"
       width="6"
       height="6"
       x="0"
       y="0" />
    <pattern
       id="EMFhbasepattern-09"
       patternUnits="userSpaceOnUse"
       width="6"
       height="6"
       x="0"
       y="0" />
    <pattern
       id="EMFhbasepattern-5"
       patternUnits="userSpaceOnUse"
       width="6"
       height="6"
       x="0"
       y="0" />
    <pattern
       id="EMFhbasepattern-018"
       patternUnits="userSpaceOnUse"
       width="6"
       height="6"
       x="0"
       y="0" />
  </defs>
  <sodipodi:namedview
     id="base"
     pagecolor="#ffffff"
     bordercolor="#666666"
     borderopacity="1.0"
     inkscape:pageopacity="0.0"
     inkscape:pageshadow="2"
     inkscape:zoom="4.989546"
     inkscape:cx="42.666667"
     inkscape:cy="42.666667"
     inkscape:document-units="pt"
     inkscape:current-layer="layer1"
     showgrid="false"
     units="pt"
     inkscape:window-width="1366"
     inkscape:window-height="716"
     inkscape:window-x="-8"
     inkscape:window-y="-8"
     inkscape:window-maximized="1"
     inkscape:pagecheckerboard="true"
     inkscape:showpageshadow="false"
     inkscape:object-paths="true"
     inkscape:snap-intersection-paths="true"
     inkscape:snap-smooth-nodes="true"
     inkscape:snap-midpoints="true"
     showguides="false"
     inkscape:snap-bbox="true"
     inkscape:bbox-nodes="true"
     inkscape:snap-nodes="false"
     inkscape:snap-global="true"
     inkscape:document-rotation="0">
    <inkscape:grid
       type="xygrid"
       id="grid1378" />
    <sodipodi:guide
       position="0.97013831,21.607643"
       orientation="78.000048,0"
       id="guide1380"
       inkscape:locked="false" />
    <sodipodi:guide
       position="0.97013831,0.97013129"
       orientation="0,78.000005"
       id="guide1382"
       inkscape:locked="false" />
    <sodipodi:guide
       position="21.607639,0.97013129"
       orientation="-78.000048,0"
       id="guide1384"
       inkscape:locked="false" />
    <sodipodi:guide
       position="21.607639,21.607643"
       orientation="0,-78.000005"
       id="guide1386"
       inkscape:locked="false" />
  </sodipodi:namedview>
  <metadata
     id="metadata828">
    <rdf:RDF>
      <cc:Work
         rdf:about="">
        <dc:format>image/svg+xml</dc:format>
        <dc:type
           rdf:resource="http://purl.org/dc/dcmitype/StillImage" />
        <dc:title></dc:title>
      </cc:Work>
    </rdf:RDF>
  </metadata>
  <g
     inkscape:label="Icon"
     inkscape:groupmode="layer"
     id="layer1"
     transform="translate(0,-274.42223)">
    <g
       transform="matrix(1.2565206,0,0,1.2565206,38.977198,-191.81995)"
       style="display:inline;stroke-width:0.795848"
       id="g421">
      <g
         style="display:inline;stroke-width:0.795848"
         id="g1493">
        <path
           style="color:#000000;font-style:normal;font-variant:normal;font-weight:normal;font-stretch:normal;font-size:medium;line-height:normal;font-family:sans-serif;font-variant-ligatures:normal;font-variant-position:normal;font-variant-caps:normal;font-variant-numeric:normal;font-variant-alternates:normal;font-variant-east-asian:normal;font-feature-settings:normal;font-variation-settings:normal;text-indent:0;text-align:start;text-decoration:none;text-decoration-line:none;text-decoration-style:solid;text-decoration-color:#000000;letter-spacing:normal;word-spacing:normal;text-transform:none;writing-mode:lr-tb;direction:ltr;text-orientation:mixed;dominant-baseline:auto;baseline-shift:baseline;text-anchor:start;white-space:normal;shape-padding:0;shape-margin:0;inline-size:0;clip-rule:evenodd;display:inline;overflow:visible;visibility:visible;isolation:auto;mix-blend-mode:normal;color-interpolation:sRGB;color-interpolation-filters:linearRGB;solid-color:#000000;solid-opacity:1;vector-effect:none;fill:#fed883;fill-opacity:1;fill-rule:evenodd;stroke:none;stroke-width:0.421137px;stroke-linecap:round;stroke-linejoin:round;stroke-miterlimit:1.5;stroke-dasharray:none;stroke-dashoffset:0;stroke-opacity:1;color-rendering:auto;image-rendering:auto;shape-rendering:auto;text-rendering:auto;enable-background:accumulate;stop-color:#000000"
           d="m -28.365234,373.42188 c -0.270791,0.1025 -0.432395,0.34501 -0.570313,0.65039 -0.137917,0.30538 -0.241223,0.69179 -0.298828,1.13867 -0.115209,0.89375 -0.04361,2.02612 0.382813,3.15234 a 0.26460996,0.26460996 0 0 0 0.002,0.004 c 0.07747,0.1952 0.499856,1.24227 0.617187,1.49023 a 0.26460996,0.26460996 0 0 0 0.08398,0.10156 l 2.798829,2.00586 a 0.26460996,0.26460996 0 0 0 0.416015,-0.17187 l 0.583985,-3.63477 a 0.26460996,0.26460996 0 0 0 -0.0039,-0.0996 c -0.08927,-0.40849 -0.213567,-0.82985 -0.375,-1.25586 -0.426425,-1.12621 -1.122541,-2.02193 -1.800781,-2.61523 -0.33912,-0.29665 -0.672936,-0.5188 -0.978515,-0.65625 -0.30558,-0.13745 -0.586654,-0.21188 -0.857422,-0.10937 z"
           id="path1920" />
        <path
           id="path1481"
           style="color:#000000;font-style:normal;font-variant:normal;font-weight:normal;font-stretch:normal;font-size:medium;line-height:normal;font-family:sans-serif;font-variant-ligatures:normal;font-variant-position:normal;font-variant-caps:normal;font-variant-numeric:normal;font-variant-alternates:normal;font-variant-east-asian:normal;font-feature-settings:normal;font-variation-settings:normal;text-indent:0;text-align:start;text-decoration:none;text-decoration-line:none;text-decoration-style:solid;text-decoration-color:#000000;letter-spacing:normal;word-spacing:normal;text-transform:none;writing-mode:lr-tb;direction:ltr;text-orientation:mixed;dominant-baseline:auto;baseline-shift:baseline;text-anchor:start;white-space:normal;shape-padding:0;shape-margin:0;inline-size:0;clip-rule:evenodd;display:inline;overflow:visible;visibility:visible;isolation:auto;mix-blend-mode:normal;color-interpolation:sRGB;color-interpolation-filters:linearRGB;solid-color:#000000;solid-opacity:1;vector-effect:none;fill:#f5c773;fill-opacity:1;fill-rule:evenodd;stroke:none;stroke-width:0.421137px;stroke-linecap:round;stroke-linejoin:round;stroke-miterlimit:1.5;stroke-dasharray:none;stroke-dashoffset:0;stroke-opacity:1;color-rendering:auto;image-rendering:auto;shape-rendering:auto;text-rendering:auto;enable-background:accumulate;stop-color:#000000"
           d="m -28.160039,373.37673 c -0.0692,0.005 -0.137464,0.0198 -0.205155,0.0455 v -5.3e-4 c -0.232421,0.088 -0.382887,0.28265 -0.508498,0.52814 0.100251,0.0277 0.201967,0.0631 0.307475,0.11058 0.305581,0.13746 0.639633,0.35965 0.978752,0.6563 0.678241,0.5933 1.373982,1.48913 1.800408,2.61534 0.161433,0.42601 0.285901,0.84725 0.375171,1.25574 a 0.26460996,0.26460996 0 0 1 0.0041,0.0997 l -0.466122,2.90163 0.524518,0.37569 a 0.26460996,0.26460996 0 0 0 0.415994,-0.17156 l 0.583943,-3.63492 a 0.26460996,0.26460996 0 0 0 -0.0041,-0.0997 c -0.08927,-0.40849 -0.213739,-0.82973 -0.375172,-1.25574 -0.426426,-1.12621 -1.122166,-2.02204 -1.800407,-2.61534 -0.339119,-0.29665 -0.673172,-0.51884 -0.978752,-0.65629 -0.229185,-0.10309 -0.444551,-0.17038 -0.652156,-0.15451 z" />
        <path
           style="color:#000000;font-style:normal;font-variant:normal;font-weight:normal;font-stretch:normal;font-size:medium;line-height:normal;font-family:sans-serif;font-variant-ligatures:normal;font-variant-position:normal;font-variant-caps:normal;font-variant-numeric:normal;font-variant-alternates:normal;font-variant-east-asian:normal;font-feature-settings:normal;font-variation-settings:normal;text-indent:0;text-align:start;text-decoration:none;text-decoration-line:none;text-decoration-style:solid;text-decoration-color:#000000;letter-spacing:normal;word-spacing:normal;text-transform:none;writing-mode:lr-tb;direction:ltr;text-orientation:mixed;dominant-baseline:auto;baseline-shift:baseline;text-anchor:start;white-space:normal;shape-padding:0;shape-margin:0;inline-size:0;clip-rule:evenodd;display:inline;overflow:visible;visibility:visible;isolation:auto;mix-blend-mode:normal;color-interpolation:sRGB;color-interpolation-filters:linearRGB;solid-color:#000000;solid-opacity:1;vector-effect:none;fill:#50b86b;fill-opacity:1;fill-rule:evenodd;stroke:none;stroke-width:0.421137px;stroke-linecap:round;stroke-linejoin:round;stroke-miterlimit:1.5;stroke-dasharray:none;stroke-dashoffset:0;stroke-opacity:1;color-rendering:auto;image-rendering:auto;shape-rendering:auto;text-rendering:auto;enable-background:accumulate;stop-color:#000000"
           d="m -23.34956,379.58973 c 0.02614,-1.35126 0.527343,-2.50586 0.527343,-2.50586 0.07621,-0.17332 -0.04897,-0.36827 -0.238281,-0.37109 l -4.9e-5,1.1e-4 c -0.03692,-4.1e-4 -0.07351,0.007 -0.107422,0.0215 0,0 -0.604601,0.24623 -1.011719,0.57421 -1.005149,0.81025 -1.415057,1.94421 -1.603515,2.96485 -1.779644,-1.01575 -4.214844,-0.94922 -4.214844,-0.94922 -0.261188,0.015 -0.344574,0.35944 -0.119141,0.49219 l 0.486376,0.28711 c 1.228261,0.73975 1.859352,1.83493 2.423828,2.79101 0.282238,0.47804 0.5443,0.92067 0.876953,1.26172 0.332653,0.34105 0.760976,0.57544 1.287109,0.57031 l 1.242188,0.0195 c 0.12716,0.002 0.237891,-0.0864 0.263672,-0.21093 l 0.626953,-3.10157 c -0.351343,-0.54633 -0.456041,-1.09601 -0.439451,-1.84384 z"
           id="path1946"
           sodipodi:nodetypes="ccccccccccssccccc" />
        <path
           style="color:#000000;font-style:normal;font-variant:normal;font-weight:normal;font-stretch:normal;font-size:medium;line-height:normal;font-family:sans-serif;font-variant-ligatures:normal;font-variant-position:normal;font-variant-caps:normal;font-variant-numeric:normal;font-variant-alternates:normal;font-variant-east-asian:normal;font-feature-settings:normal;font-variation-settings:normal;text-indent:0;text-align:start;text-decoration:none;text-decoration-line:none;text-decoration-style:solid;text-decoration-color:#000000;letter-spacing:normal;word-spacing:normal;text-transform:none;writing-mode:lr-tb;direction:ltr;text-orientation:mixed;dominant-baseline:auto;baseline-shift:baseline;text-anchor:start;white-space:normal;shape-padding:0;shape-margin:0;inline-size:0;clip-rule:evenodd;display:inline;overflow:visible;visibility:visible;isolation:auto;mix-blend-mode:normal;color-interpolation:sRGB;color-interpolation-filters:linearRGB;solid-color:#000000;solid-opacity:1;vector-effect:none;fill:#9ccc65;fill-opacity:1;fill-rule:evenodd;stroke:none;stroke-width:0.421137px;stroke-linecap:round;stroke-linejoin:round;stroke-miterlimit:1.5;stroke-dasharray:none;stroke-dashoffset:0;stroke-opacity:1;color-rendering:auto;image-rendering:auto;shape-rendering:auto;text-rendering:auto;enable-background:accumulate;stop-color:#000000"
           d="m -23.810547,384.47266 a 0.26460996,0.26460996 0 0 0 -0.203125,0.0918 l -1.464844,1.69727 a 0.26460996,0.26460996 0 0 0 0.197266,0.4375 l 1.564453,0.0117 a 0.26460996,0.26460996 0 0 0 0.205078,-0.0957 l 0.828125,-0.98632 a 0.26460996,0.26460996 0 0 0 -0.04102,-0.37891 l -0.925782,-0.7207 a 0.26460996,0.26460996 0 0 0 -0.160156,-0.0566 z"
           id="path1952" />
        <path
           style="color:#000000;font-style:normal;font-variant:normal;font-weight:normal;font-stretch:normal;font-size:medium;line-height:normal;font-family:sans-serif;font-variant-ligatures:normal;font-variant-position:normal;font-variant-caps:normal;font-variant-numeric:normal;font-variant-alternates:normal;font-variant-east-asian:normal;font-feature-settings:normal;font-variation-settings:normal;text-indent:0;text-align:start;text-decoration:none;text-decoration-line:none;text-decoration-style:solid;text-decoration-color:#000000;letter-spacing:normal;word-spacing:normal;text-transform:none;writing-mode:lr-tb;direction:ltr;text-orientation:mixed;dominant-baseline:auto;baseline-shift:baseline;text-anchor:start;white-space:normal;shape-padding:0;shape-margin:0;inline-size:0;clip-rule:evenodd;display:inline;overflow:visible;visibility:visible;isolation:auto;mix-blend-mode:normal;color-interpolation:sRGB;color-interpolation-filters:linearRGB;solid-color:#000000;solid-opacity:1;vector-effect:none;fill:#fed883;fill-opacity:1;fill-rule:evenodd;stroke:none;stroke-width:0.421137px;stroke-linecap:round;stroke-linejoin:round;stroke-miterlimit:1.5;stroke-dasharray:none;stroke-dashoffset:0;stroke-opacity:1;color-rendering:auto;image-rendering:auto;shape-rendering:auto;text-rendering:auto;enable-background:accumulate;stop-color:#000000"
           d="m -15.300781,373.41016 c -0.408969,0.0652 -0.880024,0.22791 -1.384766,0.48437 -1.009484,0.51293 -2.150159,1.40405 -3.091797,2.67969 -0.06168,0.0834 -0.122414,0.16628 -0.18164,0.25 a 0.26460996,0.26460996 0 0 0 -0.0059,0.01 l -1.345703,2.08594 a 0.26460996,0.26460996 0 0 0 -0.01563,0.25977 l 1.375,2.82617 a 0.26460996,0.26460996 0 0 0 0.298828,0.14258 l 2.632813,-0.62891 a 0.26460996,0.26460996 0 0 0 0.144531,-0.0918 l 0.380859,-0.47656 -0.0098,0.01 c 0.272988,-0.30702 0.542162,-0.64041 0.804687,-0.9961 0.941633,-1.27549 1.501378,-2.6862 1.740235,-3.85937 0.119428,-0.58659 0.160137,-1.11284 0.121093,-1.54492 -0.03904,-0.43209 -0.140946,-0.78928 -0.423828,-0.99805 -0.27024,-0.19951 -0.630093,-0.21759 -1.039062,-0.15234 z"
           id="path1958" />
        <path
           d="m -15.003736,373.3788 c -0.01378,5.3e-4 -0.02896,0.004 -0.04289,0.005 0.08426,0.18354 0.12822,0.40329 0.150378,0.64853 0.03904,0.43208 -0.0015,0.95802 -0.120923,1.54461 -0.238857,1.17317 -0.798829,2.58423 -1.740462,3.85972 -0.262525,0.35569 -0.531614,0.68878 -0.804602,0.9958 l 0.0098,-0.01 -0.380856,0.47646 a 0.26460996,0.26460996 0 0 1 -0.144694,0.092 l -2.1208,0.50643 0.24753,0.50901 a 0.26460996,0.26460996 0 0 0 0.298689,0.14263 l 2.632915,-0.6289 a 0.26460996,0.26460996 0 0 0 0.144694,-0.092 l 0.380855,-0.47646 -0.0098,0.01 c 0.272988,-0.30702 0.542077,-0.64012 0.804602,-0.99581 0.941633,-1.27549 1.501606,-2.68654 1.740463,-3.85971 0.119428,-0.58659 0.159967,-1.11253 0.120923,-1.54461 -0.03904,-0.43209 -0.140865,-0.78962 -0.423747,-0.99839 -0.20268,-0.14963 -0.455664,-0.19705 -0.742074,-0.18397 z"
           style="color:#000000;font-style:normal;font-variant:normal;font-weight:normal;font-stretch:normal;font-size:medium;line-height:normal;font-family:sans-serif;font-variant-ligatures:normal;font-variant-position:normal;font-variant-caps:normal;font-variant-numeric:normal;font-variant-alternates:normal;font-variant-east-asian:normal;font-feature-settings:normal;font-variation-settings:normal;text-indent:0;text-align:start;text-decoration:none;text-decoration-line:none;text-decoration-style:solid;text-decoration-color:#000000;letter-spacing:normal;word-spacing:normal;text-transform:none;writing-mode:lr-tb;direction:ltr;text-orientation:mixed;dominant-baseline:auto;baseline-shift:baseline;text-anchor:start;white-space:normal;shape-padding:0;shape-margin:0;inline-size:0;clip-rule:evenodd;display:inline;overflow:visible;visibility:visible;isolation:auto;mix-blend-mode:normal;color-interpolation:sRGB;color-interpolation-filters:linearRGB;solid-color:#000000;solid-opacity:1;vector-effect:none;fill:#f5c773;fill-opacity:1;fill-rule:evenodd;stroke:none;stroke-width:0.421137px;stroke-linecap:round;stroke-linejoin:round;stroke-miterlimit:1.5;stroke-dasharray:none;stroke-dashoffset:0;stroke-opacity:1;color-rendering:auto;image-rendering:auto;shape-rendering:auto;text-rendering:auto;enable-background:accumulate;stop-color:#000000"
           id="path1443" />
        <path
           transform="matrix(0.26458334,0,0,0.26458334,0,280.06666)"
           d="m -86.570312,365.48633 c -0.06516,0.91585 -0.158874,1.87935 -0.314454,2.91797 0.348392,-1.07663 0.626953,-1.72461 0.626954,-1.72461 0.19656,-0.44703 0.035,-0.92694 -0.3125,-1.19336 z m -1.421876,7.73437 c -0.438445,1.35891 -0.992393,2.70289 -1.705078,3.96289 -2.412117,4.26494 -4.330102,8.03046 -4.93164,11.80469 -0.358263,2.24786 -0.07108,4.54149 0.894531,6.58984 l 3.779297,0.0605 c 0.480605,0.008 0.898654,-0.32621 0.996094,-0.79687 l 2.36914,-11.72266 c -1.32791,-2.06487 -1.722858,-4.14231 -1.660156,-6.96875 0.01976,-1.0213 0.123956,-1.99678 0.257812,-2.92969 z"
           style="color:#000000;font-style:normal;font-variant:normal;font-weight:normal;font-stretch:normal;font-size:medium;line-height:normal;font-family:sans-serif;font-variant-ligatures:normal;font-variant-position:normal;font-variant-caps:normal;font-variant-numeric:normal;font-variant-alternates:normal;font-variant-east-asian:normal;font-feature-settings:normal;font-variation-settings:normal;text-indent:0;text-align:start;text-decoration:none;text-decoration-line:none;text-decoration-style:solid;text-decoration-color:#000000;letter-spacing:normal;word-spacing:normal;text-transform:none;writing-mode:lr-tb;direction:ltr;text-orientation:mixed;dominant-baseline:auto;baseline-shift:baseline;text-anchor:start;white-space:normal;shape-padding:0;shape-margin:0;inline-size:0;clip-rule:evenodd;display:inline;overflow:visible;visibility:visible;isolation:auto;mix-blend-mode:normal;color-interpolation:sRGB;color-interpolation-filters:linearRGB;solid-color:#000000;solid-opacity:1;vector-effect:none;fill:#26783f;fill-opacity:1;fill-rule:evenodd;stroke:none;stroke-width:1.5917px;stroke-linecap:round;stroke-linejoin:round;stroke-miterlimit:1.5;stroke-dasharray:none;stroke-dashoffset:0;stroke-opacity:1;color-rendering:auto;image-rendering:auto;shape-rendering:auto;text-rendering:auto;enable-background:accumulate;stop-color:#000000"
           id="path1455" />
        <path
           style="color:#000000;font-style:normal;font-variant:normal;font-weight:normal;font-stretch:normal;font-size:medium;line-height:normal;font-family:sans-serif;font-variant-ligatures:normal;font-variant-position:normal;font-variant-caps:normal;font-variant-numeric:normal;font-variant-alternates:normal;font-variant-east-asian:normal;font-feature-settings:normal;font-variation-settings:normal;text-indent:0;text-align:start;text-decoration:none;text-decoration-line:none;text-decoration-style:solid;text-decoration-color:#000000;letter-spacing:normal;word-spacing:normal;text-transform:none;writing-mode:lr-tb;direction:ltr;text-orientation:mixed;dominant-baseline:auto;baseline-shift:baseline;text-anchor:start;white-space:normal;shape-padding:0;shape-margin:0;inline-size:0;clip-rule:evenodd;display:inline;overflow:visible;visibility:visible;isolation:auto;mix-blend-mode:normal;color-interpolation:sRGB;color-interpolation-filters:linearRGB;solid-color:#000000;solid-opacity:1;vector-effect:none;fill:#50b86b;fill-opacity:1;fill-rule:evenodd;stroke:none;stroke-width:0.421137px;stroke-linecap:round;stroke-linejoin:round;stroke-miterlimit:1.5;stroke-dasharray:none;stroke-dashoffset:0;stroke-opacity:1;color-rendering:auto;image-rendering:auto;shape-rendering:auto;text-rendering:auto;enable-background:accumulate;stop-color:#000000"
           d="m -22.033203,375.02539 a 0.26460996,0.26460996 0 0 0 -0.275391,0.29297 c 0,0 0.280439,2.7256 -0.912109,4.83398 -0.628826,1.11184 -1.097394,2.06632 -1.234375,2.92578 -0.136982,0.85947 0.108877,1.64752 0.851562,2.22657 0.777132,0.60582 1.502255,0.77308 2.164063,0.61328 0.661808,-0.1598 1.235626,-0.6061 1.837891,-1.13281 1.204528,-1.05344 2.529611,-2.46136 4.654296,-2.97852 0.100734,-0.0246 0.734375,-0.16992 0.734375,-0.16992 a 0.26460996,0.26460996 0 0 0 0.0332,-0.50586 c 0,0 -3.145516,-1.14623 -5.804687,-0.50977 0.174467,-1.37289 0.106713,-2.98574 -0.847656,-4.41406 -0.374902,-0.56134 -1.042969,-1.11914 -1.042969,-1.11914 a 0.26460996,0.26460996 0 0 0 -0.158203,-0.0625 z"
           id="path1988" />
        <path
           transform="matrix(0.26458334,0,0,0.26458334,0,280.06666)"
           d="m -89.992188,394.60547 a 1.0001006,1.0001006 0 0 0 -0.767578,0.34765 l -2.376953,2.75391 c 0.503485,0.73454 1.130984,1.42329 1.925781,2.04297 1.104986,0.8614 2.1834,1.48769 3.230469,1.90234 l 2.248047,-2.67773 a 1.0001006,1.0001006 0 0 0 -0.15625,-1.43164 l -3.498047,-2.72266 a 1.0001006,1.0001006 0 0 0 -0.605469,-0.21484 z"
           style="color:#000000;font-style:normal;font-variant:normal;font-weight:normal;font-stretch:normal;font-size:medium;line-height:normal;font-family:sans-serif;font-variant-ligatures:normal;font-variant-position:normal;font-variant-caps:normal;font-variant-numeric:normal;font-variant-alternates:normal;font-variant-east-asian:normal;font-feature-settings:normal;font-variation-settings:normal;text-indent:0;text-align:start;text-decoration:none;text-decoration-line:none;text-decoration-style:solid;text-decoration-color:#000000;letter-spacing:normal;word-spacing:normal;text-transform:none;writing-mode:lr-tb;direction:ltr;text-orientation:mixed;dominant-baseline:auto;baseline-shift:baseline;text-anchor:start;white-space:normal;shape-padding:0;shape-margin:0;inline-size:0;clip-rule:evenodd;display:inline;overflow:visible;visibility:visible;isolation:auto;mix-blend-mode:normal;color-interpolation:sRGB;color-interpolation-filters:linearRGB;solid-color:#000000;solid-opacity:1;vector-effect:none;fill:#74a838;fill-opacity:1;fill-rule:evenodd;stroke:none;stroke-width:1.5917px;stroke-linecap:round;stroke-linejoin:round;stroke-miterlimit:1.5;stroke-dasharray:none;stroke-dashoffset:0;stroke-opacity:1;color-rendering:auto;image-rendering:auto;shape-rendering:auto;text-rendering:auto;enable-background:accumulate;stop-color:#000000"
           id="path1463" />
        <path
           sodipodi:nodetypes="sssccccsscccss"
           d="m -15.226978,380.82537 c -1.961979,0.56795 -3.223977,1.8955 -4.37441,2.90163 -0.602265,0.52671 -1.176323,0.97295 -1.838131,1.13275 -0.661808,0.1598 -1.387077,-0.008 -2.164209,-0.6134 -0.455884,-0.35544 -0.722591,-0.79012 -0.83044,-1.27124 -0.0064,0.0341 -0.01528,0.069 -0.02067,0.10283 -0.136982,0.85947 0.108426,1.64769 0.851111,2.22674 0.777132,0.60582 1.502401,0.7732 2.164209,0.6134 0.661808,-0.1598 1.235866,-0.60604 1.838131,-1.13274 1.204528,-1.05345 2.529295,-2.46147 4.653979,-2.97863 0.100734,-0.0246 0.734322,-0.17002 0.734322,-0.17002 0.256148,-0.0584 0.279762,-0.41411 0.03359,-0.50591 0,0 -0.412016,-0.14668 -1.047481,-0.30541 z"
           style="color:#000000;font-style:normal;font-variant:normal;font-weight:normal;font-stretch:normal;font-size:medium;line-height:normal;font-family:sans-serif;font-variant-ligatures:normal;font-variant-position:normal;font-variant-caps:normal;font-variant-numeric:normal;font-variant-alternates:normal;font-variant-east-asian:normal;font-feature-settings:normal;font-variation-settings:normal;text-indent:0;text-align:start;text-decoration:none;text-decoration-line:none;text-decoration-style:solid;text-decoration-color:#000000;letter-spacing:normal;word-spacing:normal;text-transform:none;writing-mode:lr-tb;direction:ltr;text-orientation:mixed;dominant-baseline:auto;baseline-shift:baseline;text-anchor:start;white-space:normal;shape-padding:0;shape-margin:0;inline-size:0;clip-rule:evenodd;display:inline;overflow:visible;visibility:visible;isolation:auto;mix-blend-mode:normal;color-interpolation:sRGB;color-interpolation-filters:linearRGB;solid-color:#000000;solid-opacity:1;vector-effect:none;fill:#349951;fill-opacity:1;fill-rule:evenodd;stroke:none;stroke-width:0.421137px;stroke-linecap:round;stroke-linejoin:round;stroke-miterlimit:1.5;stroke-dasharray:none;stroke-dashoffset:0;stroke-opacity:1;color-rendering:auto;image-rendering:auto;shape-rendering:auto;text-rendering:auto;enable-background:accumulate;stop-color:#000000"
           id="path1449" />
      </g>
      <path
         sodipodi:nodetypes="cccccccccccsscccsscccccccccccsccccccccsscccsscccccccscsccccccccccccccccccccccccccccscccccccccscccccscccccsscccccsscssscccccsssscsccccccccccccccssssscscccccccccccccccsssscccccccccccccccccccccccscccssccccccccccccccccccccccccccccccccccccccccc"
         transform="matrix(0.26458334,0,0,0.26458334,0,280.06666)"
         d="m -90.132777,369.08554 c 0.523011,-0.42134 0.883312,-0.52535 1.542968,-0.8711 -0.563471,1.4933 -1.581296,3.60106 -1.660156,7.91407 -0.01058,0.55253 0.427936,1.0076 0.980469,1.01757 0.552518,0.0113 1.009576,-0.42794 1.019531,-0.98046 0.09354,-5.11699 1.992187,-9.48633 1.992188,-9.48633 0.288037,-0.65507 -0.184847,-1.39169 -0.900391,-1.40235 -0.13954,-0.002 -0.278079,0.0253 -0.40625,0.0801 0,0 -2.285505,0.93227 -3.824219,2.17188 -0.402977,0.32484 -0.76968,0.66388 -1.126953,1.00781 -0.269923,-0.96416 -0.574237,-1.93553 -0.947266,-2.91992 -1.611685,-4.25654 -4.24126,-7.64237 -6.804694,-9.88477 -1.28171,-1.12119 -2.54427,-1.96097 -3.69922,-2.48047 -0.86621,-0.38962 -1.68019,-0.64592 -2.46484,-0.58593 l -3e-5,3.8e-4 c -0.26155,0.02 -0.51955,0.075 -0.77539,0.17187 -1.02346,0.3874 -1.63499,1.30479 -2.15625,2.45899 -0.52126,1.15419 -0.91119,2.61373 -1.12891,4.30273 -0.43543,3.37795 -0.16441,7.65944 1.44727,11.91601 0.21415,0.56376 0.43644,1.11467 0.67187,1.65235 0.10541,0.24151 0.21201,0.48487 0.32422,0.72461 0.23486,0.49893 0.82868,0.71232 1.32813,0.47851 0.50177,-0.23206 0.72109,-0.82669 0.48828,-1.32812 -0.10292,-0.21997 -0.20269,-0.44253 -0.30274,-0.67188 -0.002,-0.003 -0.005,-0.004 -0.008,-0.008 -0.22197,-0.50691 -0.43224,-1.0235 -0.63476,-1.55664 -0.15441,-0.4078 -0.28786,-0.81633 -0.41602,-1.22461 0.82459,0.0397 1.63877,0.0368 2.43555,-0.0391 0.27149,0.74305 0.56416,1.47768 0.87695,2.20508 -0.0874,0.005 -0.17425,0.0224 -0.26172,0.0254 -0.55262,0.0189 -0.98559,0.4806 -0.9668,1.0332 0.0178,0.55261 0.48062,0.98558 1.03321,0.9668 0.3594,-0.0121 0.71911,-0.0619 1.07812,-0.10742 0.48719,0.99453 1.00675,1.97801 1.57422,2.9414 -5.76141,-1.82164 -11.55469,-1.46094 -11.55469,-1.46094 -0.98716,0.0567 -1.30125,1.3596 -0.44921,1.86133 0,0 1.5916,0.93999 1.83007,1.08399 h 0.008 c 4.64224,2.7959 7.0267,6.93529 9.16015,10.54882 1.06673,1.80677 2.05718,3.48053 3.314455,4.76954 1.257271,1.289 2.8767,2.17368 4.865234,2.15429 0.552495,-0.008 0.994571,-0.45922 0.988282,-1.01172 -0.006,-0.55249 -0.45729,-0.99455 -1.009766,-0.98828 -1.426798,0.0151 -2.401117,-0.51628 -3.410156,-1.55078 -1.009036,-1.03449 -1.957799,-2.59229 -3.019529,-4.39062 -1.93731,-3.28135 -4.51023,-7.25406 -8.80078,-10.29102 3.15692,0.12898 7.95572,0.58051 11.999996,3.10352 -0.488865,2.1287 -0.727524,4.26371 -0.689453,6.39648 0.0096,0.55232 0.46526,0.99221 1.017578,0.98242 0.553098,-0.01 0.993309,-0.46646 0.982422,-1.01953 -0.03908,-2.18948 0.217741,-4.38053 0.793968,-6.62802 0.558305,-3.86131 2.050851,-8.16773 5.665062,-11.08114 z m 33.425746,-16.41152 c -0.360832,0.0165 -0.73662,0.0594 -1.123047,0.12109 -1.54571,0.24643 -3.326689,0.86078 -5.234375,1.83008 -3.815373,1.93863 -8.124647,5.30759 -11.683594,10.12891 -0.233083,0.31521 -0.463536,0.62663 -0.6875,0.94336 -0.319637,0.45273 -0.210139,1.07906 0.244141,1.39648 0.448886,0.31461 1.067378,0.2092 1.386718,-0.23633 0.215963,-0.30538 0.439767,-0.61282 0.664063,-0.91601 2.817085,-3.81631 6.147318,-6.66172 9.224609,-8.54102 0.991976,1.28017 2.344079,2.61332 3.451172,3.47656 0.582213,0.45337 1.206346,0.84264 1.84961,1.20313 -0.51384,1.22813 -1.092779,2.40749 -1.705078,3.56445 -1.431323,-0.69108 -2.726083,-1.61628 -3.792969,-2.77148 0.292672,-0.30407 0.579249,-0.61341 0.880859,-0.91016 0.391801,-0.38596 0.397317,-1.01606 0.01367,-1.41016 -0.193398,-0.1988 -0.460871,-0.30878 -0.738281,-0.30273 -0.254816,0.008 -0.498286,0.10796 -0.679688,0.28711 -0.246105,0.24214 -0.476811,0.49566 -0.716797,0.74219 -0.13902,-0.21691 -0.271521,-0.44001 -0.396484,-0.66797 -0.188523,-0.34432 -0.561808,-0.54514 -0.953125,-0.51563 -0.142753,0.0113 -0.281484,0.0547 -0.40625,0.125 -0.481232,0.26457 -0.658998,0.8682 -0.398437,1.35157 0.227682,0.41533 0.485529,0.81129 0.757812,1.19726 -0.726672,0.81008 -1.42292,1.63995 -2.095703,2.48633 -0.114907,-0.17025 -0.24176,-0.32567 -0.351563,-0.50195 -0.178431,-0.28196 -0.486689,-0.45822 -0.820312,-0.4668 -0.197518,-0.008 -0.392252,0.0449 -0.560547,0.14844 -0.469618,0.29291 -0.612845,0.91216 -0.318359,1.38086 0.239771,0.38493 0.499236,0.75333 0.765625,1.11523 -0.678819,0.87572 -1.313756,1.83701 -1.876953,2.68945 -0.119056,-0.19258 -0.237661,-0.38516 -0.34961,-0.58593 -0.190601,-0.3413 -0.561484,-0.54072 -0.951172,-0.50977 -0.142753,0.0113 -0.28148,0.0547 -0.40625,0.125 -0.480155,0.26986 -0.652677,0.87817 -0.384765,1.35938 0.282698,0.507 0.593581,0.98631 0.921875,1.44921 -0.647102,1.0595 -1.275529,2.13172 -1.851563,3.2461 -0.200168,-3.75065 -1.227788,-7.63232 -3.705078,-11.33985 -1.416952,-2.1216 -3.943359,-4.23046 -3.943359,-4.23046 -0.167887,-0.14249 -0.377779,-0.22575 -0.597657,-0.23633 -0.613273,-0.0302 -1.107482,0.4971 -1.041015,1.10742 0,0 1.060002,10.3028 -3.447266,18.27148 -2.376665,4.20223 -4.146339,7.80829 -4.664062,11.05664 -0.359073,2.25295 -0.0029,4.36968 1.173828,6.18946 l -5.042969,5.84375 c -0.360605,0.41794 -0.314198,1.04925 0.103516,1.41015 0.41599,0.36246 1.047132,0.31967 1.410156,-0.0957 l 4.828125,-5.59375 c 0.236205,0.22534 0.473379,0.451 0.74414,0.66211 0.399943,0.31178 0.796908,0.58651 1.189454,0.83789 l -2.376954,2.83008 c -0.355237,0.42383 -0.299478,1.05571 0.125,1.41015 0.423829,0.35528 1.055716,0.29945 1.410157,-0.125 l 2.65039,-3.15624 c 1.820501,0.77195 3.552386,0.91488 5.181641,0.52148 2.501322,-0.60397 4.670988,-2.29054 6.947266,-4.28125 4.552546,-3.98151 9.559538,-9.30319 17.589843,-11.25781 0.380727,-0.093 2.775391,-0.64258 2.775391,-0.64258 0.967313,-0.22186 1.056951,-1.56557 0.126953,-1.91211 0,0 -3.130675,-1.24942 -7.535156,-2.11914 0.603574,-0.73444 1.20287,-1.49024 1.791015,-2.28711 3.558928,-4.82075 5.675359,-10.15386 6.578126,-14.58789 0.451381,-2.21703 0.604599,-4.20483 0.457031,-5.83789 -0.147553,-1.6331 -0.532402,-2.98439 -1.601563,-3.77344 -0.766034,-0.56554 -1.722193,-0.74479 -2.804687,-0.69531 z m 0.06641,2.00976 c 0.102221,-0.002 0.179716,0.0107 0.273437,0.0137 -0.381462,1.94324 -0.90804,3.76162 -1.533203,5.5 -0.460699,-0.27381 -0.907913,-0.57014 -1.332031,-0.90039 -0.903135,-0.70419 -2.050522,-1.80796 -2.927734,-2.89063 0.0013,-6.4e-4 0.0027,-10e-4 0.0039,-0.002 1.760678,-0.89462 3.379433,-1.43685 4.644531,-1.63868 0.316276,-0.0505 0.607546,-0.0758 0.871094,-0.082 z m -49.667969,0.004 c 0.28469,0.001 0.83929,0.0792 1.52343,0.38672 0.9122,0.41034 2.03472,1.1488 3.19532,2.16406 0.78898,0.69018 1.59217,1.51862 2.369141,2.45313 -0.448167,0.42156 -0.907101,0.806 -1.378911,1.15234 -0.57812,-1.01073 -1.19222,-2.00877 -1.85351,-2.98633 -0.18807,-0.27506 -0.50079,-0.43837 -0.83399,-0.43554 -0.19962,-5.8e-4 -0.39485,0.0586 -0.56055,0.16992 -0.45669,0.31021 -0.57559,0.93182 -0.26562,1.38867 0.65101,0.96235 1.25248,1.94192 1.81836,2.93555 -0.84885,0.43784 -1.73813,0.76422 -2.66992,0.98828 -0.16398,-0.81189 -0.30748,-1.63292 -0.42578,-2.46289 -0.0699,-0.51149 -0.51743,-0.88532 -1.03321,-0.86329 -0.0348,0.003 -0.0694,0.008 -0.10351,0.0156 -0.54603,0.0779 -0.92654,0.58273 -0.84961,1.12891 0.11904,0.8352 0.26185,1.66155 0.42578,2.48046 -0.55415,0.0435 -1.12245,0.0557 -1.70703,0.0332 -0.0351,-1.20322 0.0194,-2.34536 0.15234,-3.37695 0.19714,-1.52939 0.5551,-2.83256 0.9668,-3.74415 0.41169,-0.91158 0.92151,-1.36495 1.04101,-1.41015 0.0299,-0.0113 0.0946,-0.018 0.18946,-0.0176 z m 51.732422,1.25781 c 0.122182,0.36935 0.23204,0.81466 0.283203,1.38086 0.102669,1.13634 0.02135,2.61124 -0.25,4.26953 -0.53649,-0.14628 -1.053227,-0.31973 -1.550781,-0.51953 0.597866,-1.6312 1.121607,-3.32711 1.517578,-5.13086 z m -44.007812,8.85547 c -0.330552,-0.73845 -0.684828,-1.46696 -1.056641,-2.18945 0.566343,-0.39565 1.111402,-0.84038 1.638672,-1.32227 0.469815,0.67426 0.919768,1.38988 1.335937,2.14844 z m 18.1875,-0.32812 c 3.507938,5.24999 3.686306,11.42865 2.853522,16.58008 -0.996774,5.30862 -2.933587,9.15235 -2.933587,9.15235 -0.24925,0.49295 -0.05161,1.09462 0.441406,1.34375 0.493472,0.24897 1.095332,0.0504 1.34375,-0.44336 0,0 1.919647,-3.82701 2.99414,-9.11914 6.952198,-1.92035 14.188769,-0.11789 17.941407,0.97851 -8.109581,2.27656 -13.384125,7.5853 -17.650391,11.31641 -2.213949,1.93621 -4.187914,3.38456 -6.097656,3.8457 -1.909746,0.46111 -3.846671,0.0903 -6.472656,-1.95703 -2.329811,-1.81648 -2.914282,-3.75894 -2.47461,-6.51758 0.439673,-2.75864 2.088164,-6.24662 4.429688,-10.38672 3.931884,-6.95142 3.850082,-13.79693 3.691406,-16.85351 z m 23.585937,-1.53516 c 0.603209,0.24048 1.22531,0.44877 1.869141,0.61914 -0.258523,1.08015 -0.592753,2.21076 -1.00586,3.375 -0.856917,-0.11244 -1.700126,-0.28275 -2.511718,-0.53906 0.587303,-1.12028 1.146125,-2.26417 1.648437,-3.45508 z m -44.539067,0.72461 c 0.39025,0.76462 0.75013,1.53956 1.0918,2.32227 -1.12136,0.65847 -2.30677,1.10013 -3.55664,1.35937 -0.26474,-0.82631 -0.49609,-1.66536 -0.70899,-2.51172 1.10468,-0.26765 2.16629,-0.65193 3.17383,-1.16992 z m 35.888676,0.66797 c 1.192794,1.23983 2.623214,2.2639 4.1875,3.04101 -0.574595,0.99176 -1.177352,1.96733 -1.80664,2.92969 -1.730143,-0.81284 -3.246002,-1.95735 -4.525391,-3.4043 0.685662,-0.87763 1.403629,-1.73128 2.144531,-2.5664 z m -29.689453,2.52344 c -0.598578,0.67391 -1.234261,1.29825 -1.90625,1.85156 -0.227165,-0.67202 -0.469352,-1.33807 -0.728515,-1.99805 0.660357,-0.49806 1.295595,-1.06399 1.904297,-1.69922 z m -11.353523,-1.69336 c 0.20302,0.81776 0.42847,1.62712 0.67774,2.42773 -0.74588,0.0391 -1.51119,0.0324 -2.30274,-0.0371 -0.16958,-0.78336 -0.29976,-1.55795 -0.38671,-2.3164 0.68385,0.0162 1.35529,-0.007 2.01171,-0.0742 z m 6.998055,2.66406 c 0.2631,0.68975 0.507672,1.38639 0.734375,2.08984 -1.112624,0.68414 -2.28184,1.198 -3.48047,1.50782 -0.32153,-0.72364 -0.62041,-1.45526 -0.89844,-2.19532 1.26753,-0.2947 2.48581,-0.76228 3.644535,-1.40234 z m 40.085937,0.33203 c 0.887925,0.31192 1.801332,0.54547 2.726563,0.69922 -0.387778,0.92332 -0.823245,1.85336 -1.308594,2.78515 -1.116082,-0.1016 -2.176668,-0.3015 -3.175781,-0.60546 0.608541,-0.94215 1.196134,-1.89976 1.757812,-2.87891 z m -9.396484,0.35352 c 1.325659,1.40728 2.881899,2.57153 4.630859,3.43945 -0.640884,0.95493 -1.340372,1.91745 -1.964844,2.77734 -1.848458,-0.8123 -3.366368,-1.94401 -4.601562,-3.38281 0.660275,-1.03401 1.273752,-1.93811 1.935547,-2.83398 z m -25.634766,0.51367 c 0.12333,0.43645 0.234999,0.86857 0.335938,1.29687 -1.942445,2.50553 -2.982945,5.32329 -3.494141,8.0918 -0.3502,-0.19988 -0.709155,-0.38193 -1.070313,-0.55859 -1.009562,-1.49239 -1.901066,-3.0284 -2.695316,-4.59961 1.09235,-0.32262 2.157513,-0.79646 3.183598,-1.38086 0.05161,0.19128 0.11114,0.38 0.160156,0.57226 0.139581,0.53362 0.684876,0.85346 1.21875,0.71485 0.531978,-0.13622 0.854584,-0.67593 0.722656,-1.20899 -0.10552,-0.4139 -0.22668,-0.82276 -0.34375,-1.23242 0.69334,-0.5162 1.360178,-1.07703 1.982422,-1.69531 z m 32.146484,3.71484 c 1.031739,0.36089 2.115882,0.626 3.248047,0.78711 -0.517537,0.86569 -1.075101,1.72233 -1.68164,2.5625 -1.241395,-0.13962 -2.399988,-0.3515 -3.457031,-0.6582 0.665537,-0.90158 1.304713,-1.83263 1.890624,-2.69141 z m -9.52539,0.36719 c 1.25423,1.3222 2.748626,2.40057 4.470703,3.22461 -0.719497,0.92795 -1.468135,1.83191 -2.240234,2.7168 -1.867194,0.0381 -3.763425,0.23786 -5.609375,0.67968 1.061019,-2.3376 2.17508,-4.56911 3.378906,-6.62109 z m 6.384766,4 c 1.035964,0.35235 2.140179,0.62667 3.3125,0.81836 -0.4232,0.53239 -0.848294,1.04372 -1.277344,1.54101 -1.155828,-0.16861 -2.364413,-0.2965 -3.609375,-0.36523 0.54031,-0.65607 1.061975,-1.32316 1.574219,-1.99414 z"
         style="color:#000000;font-style:normal;font-variant:normal;font-weight:normal;font-stretch:normal;font-size:medium;line-height:normal;font-family:sans-serif;font-variant-ligatures:normal;font-variant-position:normal;font-variant-caps:normal;font-variant-numeric:normal;font-variant-alternates:normal;font-variant-east-asian:normal;font-feature-settings:normal;font-variation-settings:normal;text-indent:0;text-align:start;text-decoration:none;text-decoration-line:none;text-decoration-style:solid;text-decoration-color:#000000;letter-spacing:normal;word-spacing:normal;text-transform:none;writing-mode:lr-tb;direction:ltr;text-orientation:mixed;dominant-baseline:auto;baseline-shift:baseline;text-anchor:start;white-space:normal;shape-padding:0;shape-margin:0;inline-size:0;clip-rule:evenodd;display:inline;overflow:visible;visibility:visible;opacity:1;isolation:auto;mix-blend-mode:normal;color-interpolation:sRGB;color-interpolation-filters:linearRGB;solid-color:#000000;solid-opacity:1;vector-effect:none;fill:#000000;fill-opacity:1;fill-rule:evenodd;stroke:none;stroke-width:1.5917px;stroke-linecap:round;stroke-linejoin:round;stroke-miterlimit:1.5;stroke-dasharray:none;stroke-dashoffset:0;stroke-opacity:1;color-rendering:auto;image-rendering:auto;shape-rendering:auto;text-rendering:auto;enable-background:accumulate;stop-color:#000000;stop-opacity:1"
         id="path1334" />
    </g>
  </g>
</svg>
