<?xml version="1.0" encoding="UTF-8" standalone="no"?>
<!-- Created with Inkscape (http://www.inkscape.org/) -->

<svg
   width="64pt"
   height="64pt"
   viewBox="0 0 22.577778 22.577778"
   version="1.1"
   id="svg831"
   inkscape:version="1.1.1 (3bf5ae0d25, 2021-09-20)"
   sodipodi:docname="Ex.svg"
   inkscape:export-filename="C:\Users\User\Desktop\CARLOS PROJECT\4. APRIL 1\Done\3 - Brocoli.png"
   inkscape:export-xdpi="576"
   inkscape:export-ydpi="576"
   xmlns:inkscape="http://www.inkscape.org/namespaces/inkscape"
   xmlns:sodipodi="http://sodipodi.sourceforge.net/DTD/sodipodi-0.dtd"
   xmlns="http://www.w3.org/2000/svg"
   xmlns:svg="http://www.w3.org/2000/svg"
   xmlns:rdf="http://www.w3.org/1999/02/22-rdf-syntax-ns#"
   xmlns:cc="http://creativecommons.org/ns#"
   xmlns:dc="http://purl.org/dc/elements/1.1/">
  <defs
     id="defs825">
    <pattern
       id="EMFhbasepattern"
       patternUnits="userSpaceOnUse"
       width="6"
       height="6"
       x="0"
       y="0" />
    <pattern
       id="EMFhbasepattern-9"
       patternUnits="userSpaceOnUse"
       width="6"
       height="6"
       x="0"
       y="0" />
    <pattern
       id="EMFhbasepattern-0"
       patternUnits="userSpaceOnUse"
       width="6"
       height="6"
       x="0"
       y="0" />
    <pattern
       id="EMFhbasepattern-7"
       patternUnits="userSpaceOnUse"
       width="6"
       height="6"
       x="0"
       y="0" />
    <pattern
       id="EMFhbasepattern-2"
       patternUnits="userSpaceOnUse"
       width="6"
       height="6"
       x="0"
       y="0" />
    <pattern
       id="EMFhbasepattern-98"
       patternUnits="userSpaceOnUse"
       width="6"
       height="6"
       x="0"
       y="0" />
    <pattern
       id="EMFhbasepattern-6"
       patternUnits="userSpaceOnUse"
       width="6"
       height="6"
       x="0"
       y="0" />
    <pattern
       id="EMFhbasepattern-01"
       patternUnits="userSpaceOnUse"
       width="6"
       height="6"
       x="0"
       y="0" />
    <pattern
       id="EMFhbasepattern-07"
       patternUnits="userSpaceOnUse"
       width="6"
       height="6"
       x="0"
       y="0" />
    <pattern
       id="EMFhbasepattern-8"
       patternUnits="userSpaceOnUse"
       width="6"
       height="6"
       x="0"
       y="0" />
    <pattern
       id="EMFhbasepattern-4"
       patternUnits="userSpaceOnUse"
       width="6"
       height="6"
       x="0"
       y="0" />
    <pattern
       id="EMFhbasepattern-40"
       patternUnits="userSpaceOnUse"
       width="6"
       height="6"
       x="0"
       y="0" />
    <pattern
       id="EMFhbasepattern-08"
       patternUnits="userSpaceOnUse"
       width="6"
       height="6"
       x="0"
       y="0" />
    <pattern
       id="EMFhbasepattern-04"
       patternUnits="userSpaceOnUse"
       width="6"
       height="6"
       x="0"
       y="0" />
    <pattern
       id="EMFhbasepattern-014"
       patternUnits="userSpaceOnUse"
       width="6"
       height="6"
       x="0"
       y="0" />
    <pattern
       id="EMFhbasepattern-27"
       patternUnits="userSpaceOnUse"
       width="6"
       height="6"
       x="0"
       y="0" />
    <pattern
       id="EMFhbasepattern-09"
       patternUnits="userSpaceOnUse"
       width="6"
       height="6"
       x="0"
       y="0" />
    <pattern
       id="EMFhbasepattern-5"
       patternUnits="userSpaceOnUse"
       width="6"
       height="6"
       x="0"
       y="0" />
    <pattern
       id="EMFhbasepattern-018"
       patternUnits="userSpaceOnUse"
       width="6"
       height="6"
       x="0"
       y="0" />
  </defs>
  <sodipodi:namedview
     id="base"
     pagecolor="#ffffff"
     bordercolor="#666666"
     borderopacity="1.0"
     inkscape:pageopacity="0.0"
     inkscape:pageshadow="2"
     inkscape:zoom="6.4882571"
     inkscape:cx="17.261955"
     inkscape:cy="42.615451"
     inkscape:document-units="pt"
     inkscape:current-layer="layer1"
     showgrid="false"
     units="pt"
     inkscape:window-width="1920"
     inkscape:window-height="1001"
     inkscape:window-x="-9"
     inkscape:window-y="-9"
     inkscape:window-maximized="1"
     inkscape:pagecheckerboard="true"
     inkscape:showpageshadow="false"
     inkscape:object-paths="true"
     inkscape:snap-intersection-paths="true"
     inkscape:snap-smooth-nodes="true"
     inkscape:snap-midpoints="true"
     showguides="true"
     inkscape:snap-bbox="true"
     inkscape:bbox-nodes="true"
     inkscape:snap-nodes="false"
     inkscape:snap-global="true"
     inkscape:lockguides="true">
    <inkscape:grid
       type="xygrid"
       id="grid1378" />
    <sodipodi:guide
       position="0.97013831,21.607643"
       orientation="78.000048,0"
       id="guide1380"
       inkscape:locked="true" />
    <sodipodi:guide
       position="0.97013831,0.97013129"
       orientation="0,78.000005"
       id="guide1382"
       inkscape:locked="true" />
    <sodipodi:guide
       position="21.607639,0.97013129"
       orientation="-78.000048,0"
       id="guide1384"
       inkscape:locked="true" />
    <sodipodi:guide
       position="21.607639,21.607643"
       orientation="0,-78.000005"
       id="guide1386"
       inkscape:locked="true" />
  </sodipodi:namedview>
  <metadata
     id="metadata828">
    <rdf:RDF>
      <cc:Work
         rdf:about="">
        <dc:format>image/svg+xml</dc:format>
        <dc:type
           rdf:resource="http://purl.org/dc/dcmitype/StillImage" />
      </cc:Work>
    </rdf:RDF>
  </metadata>
  <g
     inkscape:label="Icon"
     inkscape:groupmode="layer"
     id="layer1"
     transform="translate(0,-274.42223)">
    <g
       id="g16696"
       style="display:inline;stroke-width:0.795581"
       transform="matrix(1.2569429,0,0,1.2569429,-38.239673,-38.898919)">
      <g
         id="g16736"
         style="display:inline;stroke-width:0.795581">
        <path
           style="color:#000000;fill:#dc1c4b;stroke-width:0.795581;stroke-linecap:round;stroke-linejoin:round;-inkscape-stroke:none"
           d="m 38.447266,252.45898 c -0.116579,-0.024 -0.234869,0.0327 -0.289063,0.13868 -1.211058,2.3383 -1.074112,6.83065 -5.802734,8.90429 -0.405223,0.14401 -0.621919,0.41094 -0.716797,0.71094 0.139752,0.42281 0.576899,0.39506 0.917969,0.39262 2.572613,-0.13001 5.476556,-1.48665 7.537109,-3.14844 0.01943,-0.0157 0.03652,-0.0342 0.05078,-0.0547 l 2.695313,-3.86132 c 0.05448,-0.0782 0.06268,-0.17968 0.02148,-0.26563 l -0.966797,-2.00195 c -0.03633,-0.0738 -0.104902,-0.12647 -0.185547,-0.14258 z"
           id="path1907"
           sodipodi:nodetypes="cccccccccccc" />
        <path
           id="path2397"
           style="fill:#b01d47;fill-opacity:1;stroke-width:3.00692;stroke-linecap:round;stroke-linejoin:round"
           d="m 156.61328,-95.847656 c -2.48273,1.120025 -4.13919,3.173771 -5.27734,5.33789 -0.003,0.0071 -0.005,0.01431 -0.008,0.02148 -2.56297,4.898179 -3.58764,11.02683 -5.89843,16.871093 2.17767,-1.327618 4.23425,-2.768253 6.10547,-4.277343 0.0733,-0.05963 0.1377,-0.129328 0.1914,-0.207031 l 10.1875,-14.59375 z"
           transform="matrix(0.26458334,0,0,0.26458334,0,280.06666)"
           sodipodi:nodetypes="cccccccc" />
        <path
           style="color:#000000;fill:#50b86b;stroke-width:0.795581;stroke-linecap:round;stroke-linejoin:round;-inkscape-stroke:none"
           d="m 44.478516,250.0625 c -1.715434,-0.13539 -2.777643,0.60372 -3.527408,1.46266 -0.658808,-0.1471 -1.262201,-0.27068 -1.705014,-0.0681 -0.486167,0.22239 -0.825115,0.63493 -1.083985,1.13477 -0.03095,0.0588 -0.03862,0.12717 -0.02148,0.1914 l 0.505859,1.84571 c 0.0438,0.15985 0.222092,0.24055 0.371094,0.16796 l 1.349609,-0.6621 c 0.09171,0.26698 0.183679,0.53379 0.275391,0.80078 6.55e-4,0.001 0.0013,0.003 0.002,0.004 l 0.734375,2.01172 c 0.07404,0.20379 0.348325,0.23691 0.46875,0.0566 l 0.865518,-1.48044 c 0.01696,-0.025 0.02951,-0.0528 0.03711,-0.082 0.335796,-1.28724 0.234105,-2.32254 -0.367239,-3.07815 0.17709,-0.22758 0.424246,-0.51808 0.689311,-0.64826 0.305031,-0.1498 0.569221,-0.20506 1.170231,-0.13092 0.158164,0.0194 0.297498,-0.10432 0.296875,-0.26367 l 0.181242,-0.99817 c 6e-6,-0.13745 -0.105229,-0.25202 -0.242187,-0.26367 z"
           id="path2099"
           sodipodi:nodetypes="cccccccccccccccsccccc" />
        <path
           id="path2598"
           style="color:#000000;fill:#349951;fill-opacity:1;stroke-width:3.00692;stroke-linecap:round;stroke-linejoin:round;-inkscape-stroke:none"
           d="m 162.0625,-93.011719 c 0.30667,-1.175596 0.51084,-2.298401 0.61328,-3.365234 -0.80634,-0.121103 -1.6072,-0.201692 -2.39453,-0.201172 -1.26192,8.34e-4 -2.49268,0.200185 -3.66797,0.730469 -1.02007,0.460182 -1.89755,1.080661 -2.66016,1.798828 l 2.43946,6.683594 z"
           transform="matrix(0.26458334,0,0,0.26458334,0,280.06666)"
           sodipodi:nodetypes="ccscccc" />
        <path
           style="color:#000000;fill:#dc1c4b;stroke-width:0.795581;stroke-linecap:round;stroke-linejoin:round;-inkscape-stroke:none"
           d="m 40.873047,256.2832 c -0.105088,-0.008 -0.204825,0.0474 -0.253906,0.14063 -1.249151,2.38072 -1.060293,7.0333 -6.113282,9.05078 -0.454402,0.16362 -0.609375,0.34657 -0.609375,0.60156 0.02336,0.24917 0.396407,0.39126 0.765625,0.38674 0.0026,4e-5 0.0052,4e-5 0.0078,0 1.677351,-0.0601 3.773607,-0.9878 5.705078,-1.93529 1.931471,-0.94748 3.451272,-1.92403 4.417969,-4.3069 0.0014,-0.003 -0.242158,0.0559 0.0039,-0.01 0.195511,-0.53897 0.335881,-1.04281 0.416015,-1.51172 0.01458,-0.0849 -0.01311,-0.17166 -0.07422,-0.23242 l -1.691406,-1.9336 c -0.04454,-0.0443 -0.103387,-0.0713 -0.166016,-0.0762 z"
           id="path1523"
           sodipodi:nodetypes="cccccccccccccc" />
        <path
           style="color:#000000;fill:#50b86b;stroke-width:0.795581;stroke-linecap:round;stroke-linejoin:round;-inkscape-stroke:none"
           d="m 46.851729,253.99005 c -1.720812,0 -2.73087,0.58225 -3.480635,1.44123 -0.653992,-0.14608 -0.932109,-0.1894 -1.37369,0.01 -0.48507,0.21883 -0.825206,0.62533 -1.085937,1.12109 -0.03095,0.0588 -0.03862,0.12717 -0.02148,0.19141 0.168723,0.62756 0.03385,1.0897 0.205721,1.72101 0.04285,0.16065 0.221483,0.24244 0.371094,0.16992 l 1.349609,-0.66211 0.400391,1.16211 c 0.04389,0.12672 0.17564,0.20057 0.30664,0.17188 0.579105,-0.12956 1.008059,-0.29479 1.588225,-0.43743 0.102472,-0.0244 0.180717,-0.10724 0.199219,-0.21094 0.173081,-1.01978 -0.046,-1.74868 -0.551674,-2.38403 0.174702,-0.2222 0.544904,-0.65972 0.805246,-0.78758 0.305031,-0.14981 0.575067,-0.12321 1.176077,-0.0491 0.158164,0.0194 0.297498,-0.10432 0.296875,-0.26367 l 0.05846,-0.92998 c -7.7e-5,-0.13814 -0.105996,-0.26367 -0.244141,-0.26367 z"
           id="path1715"
           sodipodi:nodetypes="scsscccccccccscccss" />
        <path
           id="path12906"
           style="color:#000000;fill:#b01d47;fill-opacity:1;stroke-width:0.795581;stroke-linecap:round;stroke-linejoin:round;-inkscape-stroke:none"
           d="m 44.012301,250.0442 c -1.45083,0.004 -2.410775,0.59722 -3.090249,1.37563 -0.65881,-0.1471 -1.233054,-0.16533 -1.675868,0.0372 -0.486167,0.22239 -0.825302,0.63497 -1.08417,1.13481 -1.79e-4,6.7e-4 -3.55e-4,0.001 -5.29e-4,0.002 -10e-4,0.001 -0.0021,0.003 -0.0031,0.004 -1.211056,2.3383 -1.074124,6.83073 -5.802746,8.90437 -0.405201,0.14408 -0.754228,0.41104 -0.716751,0.71107 0.03623,0.26976 0.280987,0.36357 0.53795,0.38598 0.132766,-0.30759 0.419017,-0.43978 0.707967,-0.56741 4.728623,-2.07364 4.591691,-6.56606 5.802747,-8.90436 0.001,-0.001 0.0021,-0.003 0.0031,-0.004 1.74e-4,-6.7e-4 3.51e-4,-0.001 5.3e-4,-0.002 0.258868,-0.49984 0.598003,-0.91242 1.084169,-1.13481 0.442815,-0.20253 1.017059,-0.18431 1.675869,-0.0372 1.28094,-1.39864 2.164743,-1.44965 3.269567,-1.37262 v -0.25011 c -6.4e-5,-0.13747 -0.105381,-0.25199 -0.242363,-0.26355 z"
           sodipodi:nodetypes="ccccccccccccccccccc" />
        <path
           id="path12914"
           style="color:#000000;fill:#349951;fill-opacity:1;stroke-width:0.795581;stroke-linecap:round;stroke-linejoin:round;-inkscape-stroke:none"
           d="m 44.012301,250.13774 c -0.99812,-0.0101 -2.011894,0.35738 -2.743766,1.04928 -0.183505,0.11191 -0.279728,0.44445 -0.529807,0.31761 -0.610968,-0.12217 -1.312395,-0.25776 -1.825771,0.14986 -0.326686,0.24202 -0.567825,0.58172 -0.752036,0.94004 -0.06779,0.19183 0.04876,0.37948 0.08386,0.56795 0.05456,0.19895 0.109112,0.39789 0.163666,0.59684 0.268391,-0.70093 0.649822,-1.44546 1.366846,-1.77255 0.528849,-0.23288 1.128278,-0.15512 1.675868,-0.0372 0.647769,-0.76775 1.598417,-1.26499 2.600076,-1.3506 0.222316,-0.0225 0.376022,-0.024 0.599333,-0.0161 0.03292,-0.5179 0.03169,-0.44518 -0.638269,-0.44518 z"
           sodipodi:nodetypes="cccccccccccc" />
      </g>
      <path
         id="path3643"
         style="color:#000000;display:inline;fill:#000000;stroke-width:0.795581;stroke-linecap:round;stroke-linejoin:round;-inkscape-stroke:none"
         d="m 44.01437,250.0442 c -1.444649,0.003 -2.401573,0.59268 -3.080951,1.36581 -0.545095,-0.12459 -1.033161,-0.16516 -1.431436,-0.0486 -0.440661,0.12896 -0.786918,0.40633 -1.05265,0.76378 -0.531463,0.71489 -0.79294,1.74653 -1.131197,2.89027 -0.676513,2.2875 -1.5817,5.00384 -4.962488,6.48642 -0.498745,0.17735 -0.716751,0.4106 -0.716751,0.71107 0,0.31573 0.497996,0.40348 0.917773,0.39274 2.304408,-0.11646 4.874433,-1.21757 6.866248,-2.64015 -0.700368,2.07661 -1.840154,4.28075 -4.917012,5.50923 -0.358034,0.11392 -0.654367,0.29675 -0.609266,0.60151 0.107815,0.37204 0.463438,0.37071 0.765328,0.38654 2.045526,-0.0123 4.33651,-0.8541 6.267834,-2.02933 1.931323,-1.17522 3.50643,-2.67215 3.967848,-3.86937 0.461417,-1.19721 0.652931,-2.03866 0.639675,-2.77312 -0.01127,-0.62421 -0.270587,-1.12361 -0.615469,-1.56063 0.180626,-0.23559 0.370806,-0.44827 0.642856,-0.58188 0.30503,-0.14981 0.709504,-0.22866 1.310516,-0.15451 0.158022,0.0193 0.297153,-0.10436 0.296621,-0.26355 v -1.05885 c -1.29e-4,-0.13802 -0.10632,-0.25276 -0.243914,-0.26355 -1.709375,-0.13491 -2.797389,0.49766 -3.54707,1.35185 -0.150228,-0.0342 -0.295378,-0.0615 -0.436147,-0.0816 0.248475,-1.15996 0.100951,-2.11098 -0.456303,-2.8112 0.177088,-0.22757 0.359703,-0.43619 0.624768,-0.56637 0.30503,-0.1498 0.709504,-0.22865 1.310513,-0.15451 0.158216,0.0196 0.297709,-0.10413 0.297141,-0.26355 v -1.05678 c -6.7e-5,-0.13747 -0.105384,-0.25199 -0.242364,-0.26355 -0.160123,-0.0126 -0.314608,-0.0184 -0.464053,-0.0181 z m 0.04392,0.50178 c 0.04441,2.6e-4 0.08937,0.001 0.134877,0.003 v 0.60978 c -0.506701,-0.0184 -1.091996,0.0388 -1.312066,0.16588 -0.408951,0.20084 -0.692335,0.50912 -0.916223,0.8201 -0.07604,0.10647 -0.06286,0.25252 0.03101,0.34365 0.57507,0.55567 0.704991,1.42552 0.415997,2.65462 -0.170709,0.005 -0.330907,0.0275 -0.478526,0.0724 -0.444489,0.13505 -0.790874,0.42166 -1.056266,0.7891 -0.624475,1.03601 -0.893951,2.12958 -1.179772,3.09231 -2.363962,1.47965 -4.827458,2.82509 -7.283276,2.97553 2.840853,-1.1219 4.36779,-3.0108 5.412071,-6.9081 0.179469,-0.60684 0.34168,-1.16892 0.5178,-1.65055 l 0.300755,1.11363 c 0.04255,0.16197 0.222956,0.24417 0.373104,0.17001 l 1.349272,-0.66197 c 0.09171,0.26698 0.183724,0.53348 0.275437,0.80047 0.04745,0.13806 0.197768,0.2116 0.335896,0.16433 0.138068,-0.0474 0.211606,-0.19777 0.16433,-0.3359 -0.124153,-0.36143 -0.248951,-0.72274 -0.373104,-1.08417 -0.05132,-0.15133 -0.224039,-0.223 -0.367419,-0.15244 l -1.330151,0.65267 -0.388607,-1.43712 c 0.214556,-0.39517 0.594681,-0.7597 0.966867,-0.87385 0.321017,-0.0939 0.739177,-0.091 1.299144,0.0589 0.09983,0.0261 0.205732,-0.008 0.271301,-0.0879 0.610047,-0.74164 1.460953,-1.30343 2.837553,-1.29398 z m 2.449463,3.92017 c 0.04436,3e-4 0.08941,0.001 0.134876,0.003 v 0.53692 c -0.506698,-0.0184 -0.979056,0.002 -1.312582,0.16639 -0.40895,0.20085 -0.692335,0.50913 -0.916223,0.82011 -0.07591,0.10659 -0.06251,0.25265 0.03152,0.34365 0.370157,0.35766 0.550799,0.8311 0.562239,1.46502 0.0037,0.20182 -0.01109,0.41903 -0.04392,0.65061 l -1.324986,0.29662 -0.420129,-1.22266 c -0.0524,-0.14893 -0.222713,-0.21913 -0.364834,-0.15038 l -1.33222,0.65216 -0.38809,-1.44023 c 0.212127,-0.38873 0.588343,-0.75026 0.952396,-0.86609 0.43946,-0.11561 0.904825,-0.0549 1.312577,0.0527 0.100164,0.0274 0.207068,-0.006 0.273368,-0.0863 0.609737,-0.74126 1.253971,-1.23122 2.836002,-1.22111 z m -5.714379,2.89389 0.302308,1.11466 c 0.04281,0.16064 0.221411,0.24248 0.371036,0.17001 l 1.349788,-0.66249 0.400491,1.1622 c 0.0438,0.12671 0.175451,0.20064 0.306443,0.17208 l 1.330667,-0.29713 c -0.08254,0.34508 -0.19744,0.71565 -0.344165,1.10949 -0.489717,1.24041 -1.987809,2.71822 -3.853511,3.85351 -1.821926,1.10865 -3.982119,1.87535 -5.85184,1.92391 3.871939,-1.46918 4.622843,-4.09408 5.441519,-6.79286 0.192061,-0.64564 0.361858,-1.24469 0.547254,-1.75338 z m -2.266013,1.14773 c -0.11226,0.0924 -0.128876,0.25815 -0.03721,0.37104 0.09244,0.11225 0.258149,0.12887 0.371036,0.0372 0.172712,-0.14181 0.352626,-0.29635 0.531236,-0.46095 0.106569,-0.0993 0.112802,-0.26611 0.01394,-0.37311 -0.139983,-0.12407 -0.274608,-0.10366 -0.373097,-0.0155 z m -0.865063,0.64854 c -0.07574,0.0525 -0.153088,0.10459 -0.230476,0.15606 -0.122256,0.0808 -0.155617,0.24547 -0.07441,0.36742 0.08141,0.12154 0.246007,0.15395 0.367419,0.0723 0.08009,-0.0533 0.159729,-0.10585 0.238228,-0.1602 0.120393,-0.0835 0.150048,-0.24888 0.06615,-0.36897 -0.0926,-0.11801 -0.266658,-0.13805 -0.366903,-0.0667 z m 5.22242,1.13481 c -0.502748,0.7865 -1.246981,1.52146 -1.908411,2.06448 -0.112098,0.0926 -0.128481,0.25828 -0.03669,0.37103 0.0926,0.1136 0.259895,0.13028 0.373105,0.0372 0.690875,-0.5672 1.468237,-1.32827 2.017448,-2.18746 0.07871,-0.12302 0.04286,-0.28655 -0.0801,-0.36536 -0.144504,-0.0762 -0.28489,-0.0381 -0.365352,0.0801 z m -2.773474,2.71302 c -0.07575,0.0524 -0.151032,0.10459 -0.228409,0.15606 -0.121936,0.0807 -0.155263,0.24505 -0.07441,0.3669 0.08141,0.12154 0.246006,0.15395 0.367418,0.0723 0.0801,-0.0533 0.157676,-0.10585 0.236162,-0.1602 0.121097,-0.0828 0.151699,-0.24834 0.06821,-0.36897 -0.119782,-0.15076 -0.273714,-0.12582 -0.368969,-0.0661 z"
         sodipodi:nodetypes="sccsscccccccccscscccccccsccccssccccccccccccccccccccccccccccccccccscccccccccccccccccccsccsccccccccccccccccccccccccccccc" />
    </g>
  </g>
</svg>
