<?xml version="1.0" encoding="UTF-8" standalone="no"?>
<svg
   xmlns:dc="http://purl.org/dc/elements/1.1/"
   xmlns:cc="http://creativecommons.org/ns#"
   xmlns:rdf="http://www.w3.org/1999/02/22-rdf-syntax-ns#"
   xmlns:svg="http://www.w3.org/2000/svg"
   xmlns="http://www.w3.org/2000/svg"
   xmlns:sodipodi="http://sodipodi.sourceforge.net/DTD/sodipodi-0.dtd"
   xmlns:inkscape="http://www.inkscape.org/namespaces/inkscape"
   inkscape:export-ydpi="576"
   inkscape:export-xdpi="576"
   inkscape:export-filename="E:\Project\27-3-2022\4 - Icon-Icons\016 - Vegetables\Send\4 - Filledline\30 - Potatoes.png"
   sodipodi:docname="30 - Potatoes.svg"
   inkscape:version="1.0 (4035a4fb49, 2020-05-01)"
   id="svg831"
   version="1.1"
   viewBox="0 0 22.577778 22.577778"
   height="64pt"
   width="64pt">
  <defs
     id="defs825">
    <pattern
       y="0"
       x="0"
       height="6"
       width="6"
       patternUnits="userSpaceOnUse"
       id="EMFhbasepattern" />
    <pattern
       y="0"
       x="0"
       height="6"
       width="6"
       patternUnits="userSpaceOnUse"
       id="EMFhbasepattern-9" />
    <pattern
       y="0"
       x="0"
       height="6"
       width="6"
       patternUnits="userSpaceOnUse"
       id="EMFhbasepattern-0" />
    <pattern
       y="0"
       x="0"
       height="6"
       width="6"
       patternUnits="userSpaceOnUse"
       id="EMFhbasepattern-7" />
    <pattern
       y="0"
       x="0"
       height="6"
       width="6"
       patternUnits="userSpaceOnUse"
       id="EMFhbasepattern-2" />
    <pattern
       y="0"
       x="0"
       height="6"
       width="6"
       patternUnits="userSpaceOnUse"
       id="EMFhbasepattern-98" />
    <pattern
       y="0"
       x="0"
       height="6"
       width="6"
       patternUnits="userSpaceOnUse"
       id="EMFhbasepattern-6" />
    <pattern
       y="0"
       x="0"
       height="6"
       width="6"
       patternUnits="userSpaceOnUse"
       id="EMFhbasepattern-01" />
    <pattern
       y="0"
       x="0"
       height="6"
       width="6"
       patternUnits="userSpaceOnUse"
       id="EMFhbasepattern-07" />
    <pattern
       y="0"
       x="0"
       height="6"
       width="6"
       patternUnits="userSpaceOnUse"
       id="EMFhbasepattern-8" />
    <pattern
       y="0"
       x="0"
       height="6"
       width="6"
       patternUnits="userSpaceOnUse"
       id="EMFhbasepattern-4" />
    <pattern
       y="0"
       x="0"
       height="6"
       width="6"
       patternUnits="userSpaceOnUse"
       id="EMFhbasepattern-40" />
    <pattern
       y="0"
       x="0"
       height="6"
       width="6"
       patternUnits="userSpaceOnUse"
       id="EMFhbasepattern-08" />
    <pattern
       y="0"
       x="0"
       height="6"
       width="6"
       patternUnits="userSpaceOnUse"
       id="EMFhbasepattern-04" />
    <pattern
       y="0"
       x="0"
       height="6"
       width="6"
       patternUnits="userSpaceOnUse"
       id="EMFhbasepattern-014" />
    <pattern
       y="0"
       x="0"
       height="6"
       width="6"
       patternUnits="userSpaceOnUse"
       id="EMFhbasepattern-27" />
    <pattern
       y="0"
       x="0"
       height="6"
       width="6"
       patternUnits="userSpaceOnUse"
       id="EMFhbasepattern-09" />
    <pattern
       y="0"
       x="0"
       height="6"
       width="6"
       patternUnits="userSpaceOnUse"
       id="EMFhbasepattern-5" />
    <pattern
       y="0"
       x="0"
       height="6"
       width="6"
       patternUnits="userSpaceOnUse"
       id="EMFhbasepattern-018" />
  </defs>
  <sodipodi:namedview
     inkscape:document-rotation="0"
     inkscape:snap-global="true"
     inkscape:snap-nodes="false"
     inkscape:bbox-nodes="true"
     inkscape:snap-bbox="true"
     showguides="false"
     inkscape:snap-midpoints="true"
     inkscape:snap-smooth-nodes="true"
     inkscape:snap-intersection-paths="true"
     inkscape:object-paths="true"
     inkscape:showpageshadow="false"
     inkscape:pagecheckerboard="true"
     inkscape:window-maximized="1"
     inkscape:window-y="-8"
     inkscape:window-x="-8"
     inkscape:window-height="716"
     inkscape:window-width="1366"
     units="pt"
     showgrid="false"
     inkscape:current-layer="layer1"
     inkscape:document-units="pt"
     inkscape:cy="42.666667"
     inkscape:cx="42.666667"
     inkscape:zoom="5.2073436"
     inkscape:pageshadow="2"
     inkscape:pageopacity="0.0"
     borderopacity="1.0"
     bordercolor="#666666"
     pagecolor="#ffffff"
     id="base">
    <inkscape:grid
       id="grid1378"
       type="xygrid" />
    <sodipodi:guide
       inkscape:locked="false"
       id="guide1380"
       orientation="78.000048,0"
       position="0.97013831,21.607643" />
    <sodipodi:guide
       inkscape:locked="false"
       id="guide1382"
       orientation="0,78.000005"
       position="0.97013831,0.97013129" />
    <sodipodi:guide
       inkscape:locked="false"
       id="guide1384"
       orientation="-78.000048,0"
       position="21.607639,0.97013129" />
    <sodipodi:guide
       inkscape:locked="false"
       id="guide1386"
       orientation="0,-78.000005"
       position="21.607639,21.607643" />
  </sodipodi:namedview>
  <metadata
     id="metadata828">
    <rdf:RDF>
      <cc:Work
         rdf:about="">
        <dc:format>image/svg+xml</dc:format>
        <dc:type
           rdf:resource="http://purl.org/dc/dcmitype/StillImage" />
        <dc:title></dc:title>
      </cc:Work>
    </rdf:RDF>
  </metadata>
  <g
     transform="translate(0,-274.42223)"
     id="layer1"
     inkscape:groupmode="layer"
     inkscape:label="Icon">
    <g
       transform="matrix(1.2579018,0,0,1.2579018,-114.46954,-192.34466)"
       style="display:inline;stroke-width:0.794975"
       id="g493">
      <g
         id="g1768"
         style="display:inline;stroke-width:0.794975">
        <path
           id="path2236"
           d="m 100.61914,373.42188 c -1.848948,-0.525 -3.722294,0.15546 -4.925781,1.67382 -0.265437,0.33471 -0.476134,0.69694 -0.634765,1.07422 -0.106235,0.25473 -0.322861,0.43355 -0.617188,0.60742 -0.294326,0.17387 -0.653972,0.32854 -0.978515,0.5586 -0.304325,0.21523 -0.582527,0.47654 -0.824219,0.78125 -1.436704,1.81239 -1.043808,4.50724 0.851562,6.00976 1.689714,1.33945 4.025856,1.30339 5.535157,-0.008 0.05502,-0.0478 0.109291,-0.097 0.162109,-0.14844 a 0.26460996,0.26460996 0 0 0 0.0078,-0.008 l 2.32031,-2.44336 a 0.26460996,0.26460996 0 0 0 0.0508,-0.0781 l 2.16211,-5.09766 a 0.26460996,0.26460996 0 0 0 -0.0469,-0.28125 l -1.59961,-1.76758 a 0.26460996,0.26460996 0 0 0 -0.0215,-0.0195 c -0.378,-0.33697 -0.84989,-0.68557 -1.44141,-0.85351 z"
           style="color:#000000;font-style:normal;font-variant:normal;font-weight:normal;font-stretch:normal;font-size:medium;line-height:normal;font-family:sans-serif;font-variant-ligatures:normal;font-variant-position:normal;font-variant-caps:normal;font-variant-numeric:normal;font-variant-alternates:normal;font-variant-east-asian:normal;font-feature-settings:normal;font-variation-settings:normal;text-indent:0;text-align:start;text-decoration:none;text-decoration-line:none;text-decoration-style:solid;text-decoration-color:#000000;letter-spacing:normal;word-spacing:normal;text-transform:none;writing-mode:lr-tb;direction:ltr;text-orientation:mixed;dominant-baseline:auto;baseline-shift:baseline;text-anchor:start;white-space:normal;shape-padding:0;shape-margin:0;inline-size:0;clip-rule:evenodd;display:inline;overflow:visible;visibility:visible;isolation:auto;mix-blend-mode:normal;color-interpolation:sRGB;color-interpolation-filters:linearRGB;solid-color:#000000;solid-opacity:1;vector-effect:none;fill:#d0ad9b;fill-opacity:1;fill-rule:evenodd;stroke:none;stroke-width:0.420674px;stroke-linecap:round;stroke-linejoin:round;stroke-miterlimit:1.5;stroke-dasharray:none;stroke-dashoffset:0;stroke-opacity:1;color-rendering:auto;image-rendering:auto;shape-rendering:auto;text-rendering:auto;enable-background:accumulate;stop-color:#000000" />
        <path
           id="path1750"
           style="color:#000000;font-style:normal;font-variant:normal;font-weight:normal;font-stretch:normal;font-size:medium;line-height:normal;font-family:sans-serif;font-variant-ligatures:normal;font-variant-position:normal;font-variant-caps:normal;font-variant-numeric:normal;font-variant-alternates:normal;font-variant-east-asian:normal;font-feature-settings:normal;font-variation-settings:normal;text-indent:0;text-align:start;text-decoration:none;text-decoration-line:none;text-decoration-style:solid;text-decoration-color:#000000;letter-spacing:normal;word-spacing:normal;text-transform:none;writing-mode:lr-tb;direction:ltr;text-orientation:mixed;dominant-baseline:auto;baseline-shift:baseline;text-anchor:start;white-space:normal;shape-padding:0;shape-margin:0;inline-size:0;clip-rule:evenodd;display:inline;overflow:visible;visibility:visible;isolation:auto;mix-blend-mode:normal;color-interpolation:sRGB;color-interpolation-filters:linearRGB;solid-color:#000000;solid-opacity:1;vector-effect:none;fill:#bd887f;fill-opacity:1;fill-rule:evenodd;stroke:none;stroke-width:1.58995px;stroke-linecap:round;stroke-linejoin:round;stroke-miterlimit:1.5;stroke-dasharray:none;stroke-dashoffset:0;stroke-opacity:1;color-rendering:auto;image-rendering:auto;shape-rendering:auto;text-rendering:auto;enable-background:accumulate;stop-color:#000000"
           d="m 372.19187,392.78225 c -5.61988,3.4046 -13.18828,2.99732 -18.84209,-1.4854 -3.95942,-3.13879 -6.17398,-7.65461 -6.45508,-12.22266 -0.33392,5.22077 1.91709,10.62526 6.45508,14.22266 6.38632,5.06252 15.21548,4.92615 20.91992,-0.0293 l 0.64259,-0.58985 8.76953,-9.23437 c 0.0809,-0.0868 0.14573,-0.18735 0.19141,-0.29688 l 8.17187,-19.26562 c 0.15286,-0.35854 0.0835,-0.77323 -0.17773,-1.0625 l -5.15839,-5.70114 c -0.85439,0.0736 -1.76323,0.24361 -2.71093,0.57812 -3.51058,1.23984 -6.05827,3.79352 -7.58008,6.81446 -1.51475,3.00695 -2.10352,6.45461 -2.10352,9.92773 0,1.61862 0.20781,3.18918 0.60352,4.6875 0.003,0.008 0.005,0.0156 0.008,0.0234 0.49855,1.87294 0.49493,3.8358 -0.0215,5.70508 -0.0249,0.0892 -0.029,0.18197 -0.0449,0.27343 -0.0102,0.0393 -0.004,0.0876 -0.0137,0.12696 -0.3101,1.25183 -0.43845,2.33163 -0.50058,3.44072 -0.0795,1.41939 -0.93882,3.35184 -2.15342,4.08766 z"
           transform="matrix(0.26458334,0,0,0.26458334,0,280.06666)"
           sodipodi:nodetypes="cccsccccccccsscccccc" />
        <path
           id="path2266"
           d="m 103.03711,375.06055 c -0.35698,-0.056 -0.79197,-0.0698 -1.27734,0.10156 -0.80456,0.28415 -1.37825,0.8575 -1.73438,1.56445 -0.356126,0.70696 -0.505859,1.54704 -0.505859,2.41016 0,0.38642 0.05026,0.76024 0.144531,1.11719 a 0.26460996,0.26460996 0 0 0 0.002,0.002 c 0.154544,0.57899 0.151744,1.18793 -0.0078,1.76562 a 0.26460996,0.26460996 0 0 0 -0.0098,0.0645 c -0.07936,0.30564 -0.128907,0.62332 -0.128907,0.95312 0,2.09369 1.705145,3.79883 3.798825,3.79883 2.09013,0 3.79346,-1.69993 3.79883,-3.78906 0,0 0,-0.002 0,-0.002 1.2e-4,-0.004 0,-10e-4 0,-0.0176 0.001,-0.59936 0.16278,-1.18655 0.46679,-1.70313 0.37778,-0.64264 0.59375,-1.39199 0.59375,-2.18945 0,-1.74052 -0.76978,-3.40641 -2.37304,-3.97461 -0.86214,-0.30556 -1.58876,0.0527 -1.95508,0.0527 -0.17597,0 -0.45552,-0.0983 -0.8125,-0.15429 z"
           style="color:#000000;font-style:normal;font-variant:normal;font-weight:normal;font-stretch:normal;font-size:medium;line-height:normal;font-family:sans-serif;font-variant-ligatures:normal;font-variant-position:normal;font-variant-caps:normal;font-variant-numeric:normal;font-variant-alternates:normal;font-variant-east-asian:normal;font-feature-settings:normal;font-variation-settings:normal;text-indent:0;text-align:start;text-decoration:none;text-decoration-line:none;text-decoration-style:solid;text-decoration-color:#000000;letter-spacing:normal;word-spacing:normal;text-transform:none;writing-mode:lr-tb;direction:ltr;text-orientation:mixed;dominant-baseline:auto;baseline-shift:baseline;text-anchor:start;white-space:normal;shape-padding:0;shape-margin:0;inline-size:0;clip-rule:evenodd;display:inline;overflow:visible;visibility:visible;isolation:auto;mix-blend-mode:normal;color-interpolation:sRGB;color-interpolation-filters:linearRGB;solid-color:#000000;solid-opacity:1;vector-effect:none;fill:#d0ad9b;fill-opacity:1;fill-rule:evenodd;stroke:none;stroke-width:0.420674px;stroke-linecap:round;stroke-linejoin:round;stroke-miterlimit:1.5;stroke-dasharray:none;stroke-dashoffset:0;stroke-opacity:1;color-rendering:auto;image-rendering:auto;shape-rendering:auto;text-rendering:auto;enable-background:accumulate;stop-color:#000000" />
        <path
           id="path1744"
           style="color:#000000;font-style:normal;font-variant:normal;font-weight:normal;font-stretch:normal;font-size:medium;line-height:normal;font-family:sans-serif;font-variant-ligatures:normal;font-variant-position:normal;font-variant-caps:normal;font-variant-numeric:normal;font-variant-alternates:normal;font-variant-east-asian:normal;font-feature-settings:normal;font-variation-settings:normal;text-indent:0;text-align:start;text-decoration:none;text-decoration-line:none;text-decoration-style:solid;text-decoration-color:#000000;letter-spacing:normal;word-spacing:normal;text-transform:none;writing-mode:lr-tb;direction:ltr;text-orientation:mixed;dominant-baseline:auto;baseline-shift:baseline;text-anchor:start;white-space:normal;shape-padding:0;shape-margin:0;inline-size:0;clip-rule:evenodd;display:inline;overflow:visible;visibility:visible;isolation:auto;mix-blend-mode:normal;color-interpolation:sRGB;color-interpolation-filters:linearRGB;solid-color:#000000;solid-opacity:1;vector-effect:none;fill:#bd887f;fill-opacity:1;fill-rule:evenodd;stroke:none;stroke-width:0.420674px;stroke-linecap:round;stroke-linejoin:round;stroke-miterlimit:1.5;stroke-dasharray:none;stroke-dashoffset:0;stroke-opacity:1;color-rendering:auto;image-rendering:auto;shape-rendering:auto;text-rendering:auto;enable-background:accumulate;stop-color:#000000"
           d="m 107.58362,381.32611 c 0.37778,-0.64264 0.59376,-1.39207 0.59376,-2.18953 0,-1.74052 -0.76972,-3.40624 -2.37298,-3.97443 -0.21554,-0.0764 -0.42245,-0.11154 -0.61754,-0.12093 v 0 c -0.1395,-0.007 -0.2704,0.002 -0.39636,0.0155 0.15601,0.0167 0.31677,0.0459 0.48473,0.10542 1.60326,0.5682 2.37298,2.23391 2.37298,3.97443 0,0.79746 -0.21598,1.5469 -0.59376,2.18953 -0.30401,0.51658 -0.46564,1.1039 -0.46664,1.7131 -0.005,2.00972 -1.56776,3.64857 -3.53467,3.78532 0.0878,0.006 0.17526,0.0134 0.26459,0.0134 2.09013,0 3.79388,-1.69979 3.79925,-3.79876 0.001,-0.60921 0.16263,-1.19652 0.46664,-1.7131 z"
           sodipodi:nodetypes="cssssccscccscc" />
      </g>
      <path
         sodipodi:nodetypes="ccccsccccccccscccscssccccccccccccccccscccccccccccsssscccssccccssccccsccssccccscccscccccsccccsssccscccccscsscccsssscccccccccccccccccsccscc"
         transform="matrix(0.26458334,0,0,0.26458334,0,280.06666)"
         d="m 374.74805,356.72042 c 0.43262,0.34278 1.06115,0.27022 1.40429,-0.16211 0.341,-0.43281 0.26764,-1.05992 -0.16406,-1.40234 l -1.21875,-0.96875 c 1.6298,-0.0842 3.30043,0.0924 4.97656,0.56836 1.80072,0.51126 3.34764,1.62159 4.66602,2.79687 0.41177,0.36658 1.04255,0.33075 1.41016,-0.0801 0.36609,-0.41228 0.32941,-1.04309 -0.082,-1.41016 -1.42866,-1.27359 -3.2116,-2.59183 -5.44726,-3.22656 v 0.002 c -1.74704,-0.49606 -3.12398,-0.70604 -6.55913,-0.60243 -3.43515,0.10361 -8.64664,2.62485 -12.0581,6.92886 -1.00323,1.26505 -1.79889,2.63461 -2.39844,4.06055 -0.40151,0.96276 -1.22156,1.63973 -2.33398,2.29687 -1.11241,0.65715 -2.47065,1.24181 -3.69727,2.11133 -1.1502,0.81347 -2.20175,1.79951 -3.11523,2.95117 -5.43006,6.84998 -3.94485,17.03603 3.21875,22.71485 6.38632,5.06249 15.21548,4.92518 20.91992,-0.0312 0.20788,-0.18066 0.41375,-0.36613 0.61328,-0.56055 0.39383,-0.38411 0.40344,-1.01421 0.0215,-1.41015 -0.38496,-0.39903 -1.02109,-0.40867 -1.41797,-0.0215 -0.17216,0.16781 -0.34413,0.33061 -0.52344,0.48633 -0.96895,0.84177 -2.04766,1.52016 -3.19531,2.04101 l -3.27153,-2.58588 c -0.17295,-0.13556 -0.38574,-0.21038 -0.60547,-0.21289 -0.30933,-0.005 -0.60355,0.13347 -0.79687,0.375 -0.34145,0.4323 -0.26897,1.05934 0.16211,1.40234 l 2.2793,1.81055 c -4.24877,1.09668 -9.07687,0.203 -12.93946,-2.85938 -6.36057,-5.04223 -7.62023,-13.95608 -2.90039,-19.91015 0.23124,-0.29153 0.47554,-0.56437 0.72657,-0.83008 l 2.89062,2.28711 c 0.4323,0.34145 1.05934,0.26897 1.40234,-0.16211 0.34146,-0.4323 0.26897,-1.05935 -0.16211,-1.40235 l -2.62695,-2.08398 c 0.15839,-0.12278 0.31558,-0.24609 0.47852,-0.36133 1e-5,-0.003 1e-5,-0.005 0,-0.008 0.99095,-0.70246 2.30001,-1.27993 3.55859,-2.02344 1.25711,-0.7426 2.51464,-1.69724 3.16016,-3.24023 v -0.008 c 0.53073,-1.26085 1.2382,-2.46968 2.125,-3.58789 0.38843,-0.49005 0.80101,-0.94449 1.22461,-1.38086 l 5.27148,4.17383 c 0.4323,0.34145 1.05934,0.26897 1.40234,-0.16211 0.34145,-0.4323 0.26897,-1.05934 -0.1621,-1.40234 l -5.0254,-3.97852 c 1.83278,-1.49304 3.90083,-2.53264 6.09766,-3.06836 z m 31.86917,25.99266 c 1.42783,-2.42887 2.24414,-5.26137 2.24414,-8.27539 0,-6.57834 -2.91114,-12.87396 -8.97071,-15.02148 -3.25848,-1.15488 -6.00415,0.19921 -7.38867,0.19921 -0.66508,0 -1.72109,-0.37236 -3.07031,-0.58398 -0.67461,-0.10583 -1.42345,-0.17037 -2.23242,-0.12891 l -3e-5,-1.9e-4 c -0.80898,0.0415 -1.67847,0.18985 -2.5957,0.51368 -3.04086,1.07395 -5.20869,3.24017 -6.55469,5.9121 -1.34599,2.67198 -1.91211,5.84719 -1.91211,9.10938 0,1.46045 0.19054,2.87348 0.54687,4.22266 -10e-6,0.003 -10e-6,0.005 0,0.008 0.5838,2.18581 0.57781,4.48474 -0.0234,6.66601 -6.7e-4,0.002 6.7e-4,0.004 0,0.008 -0.34039,1.22517 -0.52344,2.51466 -0.52344,3.8457 0,7.91316 6.4443,14.35742 14.35742,14.35742 7.8997,0 14.33713,-6.42439 14.35742,-14.35751 0.004,-2.3025 0.61661,-4.52227 1.76563,-6.4747 z m -3.8028,7.20507 h -7.77343 c -0.55246,-0.002 -1.00202,0.44364 -1.00391,0.99609 -0.002,0.55537 0.44854,1.0061 1.00391,1.00391 h 7.5 c -1.24161,5.51368 -6.15509,9.62695 -12.04688,9.62695 -6.83066,0 -12.35742,-5.52672 -12.35742,-12.35742 0,-1.14886 0.15848,-2.25317 0.45117,-3.30664 1e-5,-0.003 1e-5,-0.005 0,-0.008 0.21255,-0.76954 0.35279,-1.55253 0.4375,-2.33985 h 6.05859 c 0.54959,-0.002 0.99421,-0.44846 0.9961,-0.99804 0.002,-0.5525 -0.4436,-1.00202 -0.9961,-1.00391 h -5.98046 c -0.0331,-1.13683 -0.19051,-2.2721 -0.48633,-3.38086 -0.31333,-1.18685 -0.47852,-2.42827 -0.47852,-3.71289 0,-0.66388 0.0294,-1.31765 0.082,-1.96289 h 5.70313 c 0.55249,-0.002 1.00024,-0.45142 0.99805,-1.00391 -0.002,-0.54958 -0.44847,-0.9942 -0.99805,-0.99609 h -5.44336 c 0.27584,-1.54042 0.71904,-2.98272 1.35547,-4.24609 1.15925,-2.30132 2.8961,-4.03373 5.43164,-4.92969 v 0.008 c 0.72342,-0.25544 1.39152,-0.36397 2.02148,-0.38281 l 2e-5,-1.8e-4 c 1.88988,-0.0565 3.44753,0.6914 5.21289,0.6914 2.29954,0 4.28572,-1.17866 6.71875,-0.3164 5.08929,1.80363 7.63867,7.13946 7.63868,13.13867 0,0.92007 -0.0908,1.81749 -0.25586,2.6875 h -8.04883 c -0.54958,0.002 -0.99421,0.44651 -0.9961,0.99609 -0.002,0.55246 0.44364,1.00202 0.9961,1.00391 h 7.52148 c -0.31154,0.89939 -0.71132,1.76028 -1.1875,2.57031 -1.32888,2.25804 -2.03091,4.83417 -2.03711,7.45508 z m -13.96876,-26.56073 c -0.52084,0.0178 -0.94072,0.43255 -0.96484,0.95313 -0.0265,0.5525 0.40056,1.02157 0.95312,1.04687 1.11451,0.051 2.08132,0.82031 3.63868,0.82031 1.42756,0 2.37652,-0.64099 3.31445,-0.73828 0.55054,-0.0564 0.95059,-0.54923 0.89258,-1.09961 -0.0564,-0.55054 -0.54924,-0.95058 -1.09961,-0.89257 -1.48778,0.1542 -2.46165,0.73043 -3.10742,0.73046 -0.64381,0 -1.77691,-0.73969 -3.54297,-0.82031 -0.028,-10e-4 -0.056,-10e-4 -0.084,0 z m -16.96875,10.75586 c -0.30966,-0.005 -0.60395,0.13469 -0.79687,0.37695 -0.34146,0.4323 -0.26897,1.05935 0.16211,1.40235 l 2.20117,1.74219 c 0.4323,0.34145 1.05934,0.26897 1.40234,-0.16211 0.34234,-0.43313 0.2689,-1.06174 -0.16406,-1.4043 l -2.19922,-1.74219 c -0.17295,-0.13556 -0.38574,-0.21038 -0.60547,-0.21289 z m -11.77343,0.67969 c -0.30933,-0.005 -0.60356,0.13346 -0.79688,0.375 -0.34677,0.43356 -0.274,1.06659 0.16211,1.41015 l 2.75391,2.18555 c 0.4323,0.34145 1.05934,0.26897 1.40234,-0.16211 0.34677,-0.43356 0.274,-1.06659 -0.16211,-1.41015 l -2.75391,-2.18555 c -0.17295,-0.13556 -0.38573,-0.21038 -0.60546,-0.21289 z m 31.26953,2.33203 c -0.54924,0.002 -0.99396,0.44685 -0.9961,0.99609 -0.002,0.55229 0.44381,1.00176 0.9961,1.00391 h 2.9375 c 0.55229,-0.002 0.99825,-0.45162 0.99609,-1.00391 -0.002,-0.54923 -0.44686,-0.99395 -0.99609,-0.99609 z"
         style="color:#000000;font-style:normal;font-variant:normal;font-weight:normal;font-stretch:normal;font-size:medium;line-height:normal;font-family:sans-serif;font-variant-ligatures:normal;font-variant-position:normal;font-variant-caps:normal;font-variant-numeric:normal;font-variant-alternates:normal;font-variant-east-asian:normal;font-feature-settings:normal;font-variation-settings:normal;text-indent:0;text-align:start;text-decoration:none;text-decoration-line:none;text-decoration-style:solid;text-decoration-color:#000000;letter-spacing:normal;word-spacing:normal;text-transform:none;writing-mode:lr-tb;direction:ltr;text-orientation:mixed;dominant-baseline:auto;baseline-shift:baseline;text-anchor:start;white-space:normal;shape-padding:0;shape-margin:0;inline-size:0;clip-rule:evenodd;display:inline;overflow:visible;visibility:visible;opacity:1;isolation:auto;mix-blend-mode:normal;color-interpolation:sRGB;color-interpolation-filters:linearRGB;solid-color:#000000;solid-opacity:1;vector-effect:none;fill:#000000;fill-opacity:1;fill-rule:evenodd;stroke:none;stroke-width:1.58995px;stroke-linecap:round;stroke-linejoin:round;stroke-miterlimit:1.5;stroke-dasharray:none;stroke-dashoffset:0;stroke-opacity:1;color-rendering:auto;image-rendering:auto;shape-rendering:auto;text-rendering:auto;enable-background:accumulate;stop-color:#000000;stop-opacity:1"
         id="path1143" />
    </g>
  </g>
</svg>
