<?xml version="1.0" ?><svg enable-background="new 0 0 64 64" id="Filled_Outline_1_" version="1.1" viewBox="0 0 64 64" xml:space="preserve" xmlns="http://www.w3.org/2000/svg" xmlns:xlink="http://www.w3.org/1999/xlink"><title/><desc/><g><g><circle cx="25" cy="39" fill="#F36F21" r="22"/><circle cx="25" cy="39" fill="#F36F21" r="22"/><path d="M46.86,36.5c-0.217,1.921-0.695,3.761-1.375,5.5H26c-1.1,0-2,0.9-2,2v1.46    c0,3.745,0.918,7.32,2.544,10.467C26.032,55.963,25.521,56,25,56C13.7,56,4.38,47.47,3.14,36.5C3.05,37.32,3,38.15,3,39    c0,12.15,9.85,22,22,22s22-9.85,22-22C47,38.15,46.95,37.32,46.86,36.5z M25,26c-2.761,0-5-2.015-5-4.5s2.239-4.5,5-4.5    s5,2.015,5,4.5S27.761,26,25,26z" fill="#F15822"/><path d="M25,43c0,9.941,8.059,18,18,18s18-8.059,18-18H25z" fill="#FEDEBE"/><path d="M25,43c0,9.941,8.059,18,18,18s18-8.059,18-18H25z" fill="#FEDEBE"/><path d="M54.826,43c1.238,0,2.185,1.116,1.979,2.338c-0.358,2.131-1.198,4.098-2.403,5.787    c-0.715,1.002-2.17,1.109-3.04,0.238L43,43H54.826z M29.194,45.338c0.358,2.131,1.198,4.098,2.403,5.787    c0.715,1.002,2.17,1.109,3.04,0.238L43,43H31.174C29.935,43,28.989,44.116,29.194,45.338z M45.338,56.806    c2.131-0.358,4.098-1.198,5.787-2.403c1.002-0.715,1.109-2.17,0.238-3.04L43,43v11.826C43,56.065,44.116,57.011,45.338,56.806z     M34.876,54.403c1.689,1.205,3.656,2.045,5.787,2.403C41.884,57.011,43,56.065,43,54.826V43l-8.362,8.362    C33.767,52.233,33.873,53.688,34.876,54.403z" fill="#F36F21"/><path d="M45,57c-1.105,0-2-1.791-2-4s0.895-4,2-4s2,1.791,2,4S46.105,57,45,57z M38,48    c1.105-1.105,1.552-2.448,1-3s-1.895-0.105-3,1s-1.552,2.448-1,3S36.895,49.105,38,48z M38,52c1.105-1.105,1.552-2.448,1-3    s-1.895-0.105-3,1s-1.552,2.448-1,3S36.895,53.105,38,52z M54,46.414c1.562,0,2.828-0.633,2.828-1.414S55.562,43.586,54,43.586    S51.172,44.219,51.172,45S52.438,46.414,54,46.414z" fill="#F58320"/><path d="M42,3c0,5.523-4.477,10-10,10h-4v0c0-5.523,4.477-10,10-10L42,3L42,3z M17,5c0,4.418,3.582,8,8,8h2v0    c0-4.418-3.582-8-8-8L17,5L17,5z" fill="#009245"/><path d="M22,28c0-3-3.7-6.229-8-5c-7,2-9.852,13.766-5,17c3,2,2.528-7,7-7C18,33,22,32.123,22,28z" fill="#F58320"/><path d="M42,3c0,2.24-0.74,4.31-1.99,5.98c0,0.01,0,0.01-0.01,0.02s-0.01,0.01-0.02,0.02    C37.77,11.22,35.1,12.1,34,11c-1.1-1.1-0.21-3.79,2-6c0.91-0.91,1.89-1.59,2.82-2H42z" fill="#009245"/><path d="M42,3c0,2.24-0.74,4.31-1.99,5.98c0,0.01,0,0.01-0.01,0.02s-0.01,0.01-0.02,0.02    C37.77,11.22,35.1,12.1,34,11c-1.1-1.1-0.21-3.79,2-6c0.91-0.91,1.89-1.59,2.82-2H42z" fill="#39B54A"/><path d="M36,13c-4.679,0-9.41,3.571-9.949,8.136C25.992,21.634,25.555,22,25.053,22h0    c-0.594,0-1.056-0.509-1.015-1.101C24.504,14.234,29.191,9,36,9V13z" fill="#22B573"/></g><path d="M25,60C13.42,60,4,50.58,4,39c0-11.062,8.603-20.132,19.467-20.922c-0.214,0.877-0.359,1.795-0.426,2.751   c-0.04,0.562,0.158,1.119,0.541,1.53C23.961,22.767,24.498,23,25.053,23c1.018,0,1.874-0.751,1.991-1.747   c0.125-1.057,0.536-2.074,1.144-3C38.363,19.806,46,28.659,46,39c0,0.32-0.008,0.639-0.021,0.956l1.998,0.088   C47.992,39.698,48,39.35,48,39c0-10.909-7.763-20.302-18.293-22.499C31.393,14.989,33.675,14,36,14c0.553,0,1-0.448,1-1v-0.204   c3.664-1.872,6-5.645,6-9.796c0-0.552-0.447-1-1-1h-4c-4.987,0-9.222,3.283-10.56,7.906C26.174,6.465,22.874,4,19,4h-2   c-0.552,0-1,0.448-1,1c0,4.962,4.038,9,9,9h0.162c-0.389,0.634-0.731,1.308-1.021,2.022C11.856,16.476,2,26.606,2,39   c0,12.682,10.318,23,23,23c1.765,0,3.523-0.201,5.227-0.597l-0.453-1.948C28.219,59.817,26.613,60,25,60z M38,4h2.944   C40.65,6.64,39.191,8.996,37,10.464V9c0-0.552-0.447-1-1-1c-2.353,0-4.504,0.589-6.357,1.638C30.974,6.299,34.224,4,38,4z    M18.071,6H19c3.521,0,6.442,2.612,6.929,6H25C21.479,12,18.558,9.388,18.071,6z M35,10.042v2.005   c-4.964,0.472-9.402,4.385-9.964,8.921C25.462,14.875,29.501,10.514,35,10.042z M61,42H25c-0.552,0-1,0.448-1,1   c0,10.477,8.523,19,19,19s19-8.523,19-19C62,42.448,61.553,42,61,42z M54.826,44c0.301,0,0.573,0.127,0.769,0.357   c0.112,0.133,0.292,0.417,0.225,0.814c-0.323,1.924-1.095,3.782-2.231,5.373c-0.227,0.318-0.547,0.39-0.717,0.404   c-0.299,0.018-0.591-0.083-0.802-0.293L45.414,44H54.826z M50.948,52.871c-0.014,0.17-0.085,0.49-0.405,0.718   c-1.593,1.137-3.449,1.908-5.371,2.23c-0.394,0.07-0.681-0.112-0.814-0.225C44.127,55.4,44,55.127,44,54.827v-9.412l6.655,6.656   C50.866,52.28,50.973,52.572,50.948,52.871z M42,54.827c0,0.3-0.127,0.573-0.357,0.768c-0.134,0.112-0.422,0.292-0.814,0.225   c-1.922-0.323-3.778-1.094-5.371-2.23c-0.32-0.228-0.392-0.548-0.405-0.718c-0.024-0.298,0.082-0.59,0.293-0.801L42,45.414V54.827z    M40.586,44l-6.655,6.655c-0.211,0.211-0.507,0.312-0.802,0.293c-0.17-0.014-0.49-0.086-0.718-0.405   c-1.136-1.592-1.908-3.45-2.23-5.372v0c-0.067-0.398,0.112-0.681,0.224-0.813C30.6,44.127,30.873,44,31.173,44H40.586z M43,60   c-9.038,0-16.451-7.09-16.971-16h2.328c-0.171,0.477-0.235,0.99-0.149,1.503c0.373,2.22,1.263,4.364,2.575,6.203   c0.509,0.712,1.303,1.163,2.18,1.235c0.033,0.003,0.065,0.002,0.098,0.004c0.002,0.031-0.005,0.06-0.002,0.091   c0.072,0.877,0.523,1.672,1.236,2.181c1.839,1.312,3.982,2.203,6.201,2.575c0.166,0.028,0.333,0.042,0.499,0.042   c0.704,0,1.391-0.248,1.938-0.711c0.025-0.021,0.042-0.048,0.066-0.07c0.024,0.022,0.042,0.049,0.066,0.07   c0.548,0.463,1.233,0.711,1.938,0.711c0.166,0,0.332-0.014,0.499-0.042c2.219-0.373,4.363-1.263,6.201-2.575   c0.713-0.508,1.164-1.303,1.236-2.181c0.003-0.031-0.004-0.06-0.002-0.091c0.033-0.002,0.065-0.001,0.098-0.004   c0.877-0.073,1.671-0.523,2.179-1.235c1.312-1.836,2.202-3.98,2.576-6.203c0.086-0.513,0.022-1.025-0.149-1.503h2.328   C59.451,52.91,52.038,60,43,60z M28.667,22.6C28.888,22.095,29,21.557,29,21h2c0,0.834-0.168,1.642-0.5,2.4L28.667,22.6z M25,25   c0.874,0,1.704-0.276,2.4-0.799l1.201,1.599C27.556,26.585,26.311,27,25,27c-3.309,0-6-2.691-6-6h2C21,23.206,22.794,25,25,25z" fill="#28284B"/></g></svg>