<?xml version="1.0" encoding="UTF-8" standalone="no"?>
<!-- Created with Inkscape (http://www.inkscape.org/) -->

<svg
   width="64pt"
   height="64pt"
   viewBox="0 0 22.577778 22.577778"
   version="1.1"
   id="svg831"
   inkscape:version="1.1.1 (3bf5ae0d25, 2021-09-20)"
   sodipodi:docname="Ex.svg"
   inkscape:export-filename="C:\Users\User\Desktop\CARLOS PROJECT\4. APRIL 1\Done\14 - Radish.png"
   inkscape:export-xdpi="576"
   inkscape:export-ydpi="576"
   xmlns:inkscape="http://www.inkscape.org/namespaces/inkscape"
   xmlns:sodipodi="http://sodipodi.sourceforge.net/DTD/sodipodi-0.dtd"
   xmlns="http://www.w3.org/2000/svg"
   xmlns:svg="http://www.w3.org/2000/svg"
   xmlns:rdf="http://www.w3.org/1999/02/22-rdf-syntax-ns#"
   xmlns:cc="http://creativecommons.org/ns#"
   xmlns:dc="http://purl.org/dc/elements/1.1/">
  <defs
     id="defs825">
    <pattern
       id="EMFhbasepattern"
       patternUnits="userSpaceOnUse"
       width="6"
       height="6"
       x="0"
       y="0" />
    <pattern
       id="EMFhbasepattern-9"
       patternUnits="userSpaceOnUse"
       width="6"
       height="6"
       x="0"
       y="0" />
    <pattern
       id="EMFhbasepattern-0"
       patternUnits="userSpaceOnUse"
       width="6"
       height="6"
       x="0"
       y="0" />
    <pattern
       id="EMFhbasepattern-7"
       patternUnits="userSpaceOnUse"
       width="6"
       height="6"
       x="0"
       y="0" />
    <pattern
       id="EMFhbasepattern-2"
       patternUnits="userSpaceOnUse"
       width="6"
       height="6"
       x="0"
       y="0" />
    <pattern
       id="EMFhbasepattern-98"
       patternUnits="userSpaceOnUse"
       width="6"
       height="6"
       x="0"
       y="0" />
    <pattern
       id="EMFhbasepattern-6"
       patternUnits="userSpaceOnUse"
       width="6"
       height="6"
       x="0"
       y="0" />
    <pattern
       id="EMFhbasepattern-01"
       patternUnits="userSpaceOnUse"
       width="6"
       height="6"
       x="0"
       y="0" />
    <pattern
       id="EMFhbasepattern-07"
       patternUnits="userSpaceOnUse"
       width="6"
       height="6"
       x="0"
       y="0" />
    <pattern
       id="EMFhbasepattern-8"
       patternUnits="userSpaceOnUse"
       width="6"
       height="6"
       x="0"
       y="0" />
    <pattern
       id="EMFhbasepattern-4"
       patternUnits="userSpaceOnUse"
       width="6"
       height="6"
       x="0"
       y="0" />
    <pattern
       id="EMFhbasepattern-40"
       patternUnits="userSpaceOnUse"
       width="6"
       height="6"
       x="0"
       y="0" />
    <pattern
       id="EMFhbasepattern-08"
       patternUnits="userSpaceOnUse"
       width="6"
       height="6"
       x="0"
       y="0" />
    <pattern
       id="EMFhbasepattern-04"
       patternUnits="userSpaceOnUse"
       width="6"
       height="6"
       x="0"
       y="0" />
    <pattern
       id="EMFhbasepattern-014"
       patternUnits="userSpaceOnUse"
       width="6"
       height="6"
       x="0"
       y="0" />
    <pattern
       id="EMFhbasepattern-27"
       patternUnits="userSpaceOnUse"
       width="6"
       height="6"
       x="0"
       y="0" />
    <pattern
       id="EMFhbasepattern-09"
       patternUnits="userSpaceOnUse"
       width="6"
       height="6"
       x="0"
       y="0" />
    <pattern
       id="EMFhbasepattern-5"
       patternUnits="userSpaceOnUse"
       width="6"
       height="6"
       x="0"
       y="0" />
    <pattern
       id="EMFhbasepattern-018"
       patternUnits="userSpaceOnUse"
       width="6"
       height="6"
       x="0"
       y="0" />
  </defs>
  <sodipodi:namedview
     id="base"
     pagecolor="#ffffff"
     bordercolor="#666666"
     borderopacity="1.0"
     inkscape:pageopacity="0.0"
     inkscape:pageshadow="2"
     inkscape:zoom="6.4882571"
     inkscape:cx="42.692513"
     inkscape:cy="42.61545"
     inkscape:document-units="pt"
     inkscape:current-layer="layer1"
     showgrid="false"
     units="pt"
     inkscape:window-width="1920"
     inkscape:window-height="1001"
     inkscape:window-x="-9"
     inkscape:window-y="-9"
     inkscape:window-maximized="1"
     inkscape:pagecheckerboard="true"
     inkscape:showpageshadow="false"
     inkscape:object-paths="true"
     inkscape:snap-intersection-paths="true"
     inkscape:snap-smooth-nodes="true"
     inkscape:snap-midpoints="true"
     showguides="true"
     inkscape:snap-bbox="true"
     inkscape:bbox-nodes="true"
     inkscape:snap-nodes="false"
     inkscape:snap-global="true"
     inkscape:lockguides="true">
    <inkscape:grid
       type="xygrid"
       id="grid1378" />
    <sodipodi:guide
       position="0.97013831,21.607643"
       orientation="78.000048,0"
       id="guide1380"
       inkscape:locked="true" />
    <sodipodi:guide
       position="0.97013831,0.97013129"
       orientation="0,78.000005"
       id="guide1382"
       inkscape:locked="true" />
    <sodipodi:guide
       position="21.607639,0.97013129"
       orientation="-78.000048,0"
       id="guide1384"
       inkscape:locked="true" />
    <sodipodi:guide
       position="21.607639,21.607643"
       orientation="0,-78.000005"
       id="guide1386"
       inkscape:locked="true" />
  </sodipodi:namedview>
  <metadata
     id="metadata828">
    <rdf:RDF>
      <cc:Work
         rdf:about="">
        <dc:format>image/svg+xml</dc:format>
        <dc:type
           rdf:resource="http://purl.org/dc/dcmitype/StillImage" />
      </cc:Work>
    </rdf:RDF>
  </metadata>
  <g
     inkscape:label="Icon"
     inkscape:groupmode="layer"
     id="layer1"
     transform="translate(0,-274.42223)">
    <g
       id="g59400"
       style="display:inline;stroke-width:0.805084"
       transform="matrix(1.2421061,0,0,1.2421061,-71.529618,-112.09499)">
      <g
         id="g39821"
         style="display:inline;stroke-width:0.805084"
         transform="translate(-2.7967848)">
        <g
           id="g107712"
           style="stroke-width:0.805084">
          <path
             style="color:#000000;fill:#349951;stroke-width:0.805084;stroke-linecap:round;stroke-linejoin:round;-inkscape-stroke:none"
             d="m 75.503906,315.99023 c -0.269478,-0.14831 -0.558724,-0.28637 -0.841797,-0.20507 -0.377016,0.10827 -0.71779,0.36414 -0.916015,0.71875 l 0.0332,-0.0488 -2.566754,3.0039 c -0.0094,0.011 -0.0179,0.0228 -0.02539,0.0352 -0.516376,0.79924 -0.320492,1.66747 0.08789,2.41992 0.02432,0.0445 0.06093,0.0811 0.105469,0.10547 0.511487,0.2776 0.90288,0.33007 1.47105,0.25225 0.552301,-0.0756 1.085228,-0.43518 1.564454,-1.08594 0.526736,-0.0129 0.921697,-0.1656 1.27958,-0.52348 0.357381,-0.35738 0.542822,-0.84379 0.445312,-1.31446 0.388278,-0.13086 0.762836,-0.33715 0.939453,-0.6914 0.183757,-0.36858 0.17111,-0.67623 -0.04492,-1.03936 0.259991,-0.29796 0.482586,-0.61697 0.566407,-0.93945 0.09795,-0.37684 0.202626,-0.76389 -0.06476,-1.03128 -0.267389,-0.26739 -0.666488,-0.30249 -1.023449,-0.21155 -0.35696,0.0909 -0.70459,0.27657 -1.009728,0.5553 z"
             id="path82988"
             sodipodi:nodetypes="csccccccccscscsscc" />
          <path
             style="color:#000000;fill:#349951;stroke-width:0.805084;stroke-linecap:round;stroke-linejoin:round;-inkscape-stroke:none"
             d="m 61.566085,315.64641 c -0.26739,0.26739 -0.303027,0.66613 -0.205078,1.04297 0.08403,0.32327 0.30734,0.64287 0.568359,0.9414 -0.215112,0.36292 -0.21871,0.68683 -0.03518,1.05495 0.176617,0.35425 0.551175,0.56054 0.939453,0.6914 -0.09751,0.47067 0.047,0.95123 0.404387,1.30861 0.357883,0.35788 0.834694,0.53401 1.361431,0.54687 0.479225,0.65076 0.889376,0.95768 1.441676,1.03332 0.56817,0.0778 1.117419,-0.10912 1.628906,-0.38672 0.04526,-0.024 0.08258,-0.0606 0.107422,-0.10547 0.408383,-0.75245 0.656885,-1.48036 0.140509,-2.2796 -0.0081,-0.0125 -0.01725,-0.0243 -0.02734,-0.0352 l -2.724609,-3.0039 0.03516,0.0488 c -0.198225,-0.35461 -0.538999,-0.61048 -0.916016,-0.71875 -0.283227,-0.0814 -0.574182,0.0565 -0.84375,0.20507 -0.305138,-0.27873 -0.641074,-0.49943 -0.998041,-0.5904 -0.356968,-0.091 -0.609904,-0.0208 -0.877292,0.24665 z"
             id="path82220"
             sodipodi:nodetypes="cscscscsccccccccccc" />
          <path
             id="path87256"
             style="color:#000000;fill:#26783f;fill-opacity:1;stroke-width:3.04284;stroke-linecap:round;stroke-linejoin:round;-inkscape-stroke:none"
             d="m 242.36328,134.9082 c -0.5144,-0.0117 -1.03077,0.13282 -1.53711,0.34571 0.48289,0.78347 1.12602,1.40723 1.78711,1.95312 -0.35622,1.83889 -0.22221,3.73088 0.70899,5.34375 1.11248,1.92688 2.95075,3.08869 4.90039,3.82422 1.22422,2.63837 2.93237,4.73453 5.27148,5.67578 1.45809,0.58672 2.93886,0.7594 4.375,0.69336 -0.0368,-1.25415 -0.38674,-2.51134 -1.17187,-3.72656 a 1.0001006,1.0001006 0 0 0 -0.10352,-0.13281 l -10.22852,-11.27735 c -0.75707,-1.28363 -2.01244,-2.21135 -3.39843,-2.60937 -0.20072,-0.0577 -0.40148,-0.0852 -0.60352,-0.0899 z"
             transform="matrix(0.26458334,0,0,0.26458334,0,280.06666)" />
          <path
             id="path87135"
             style="fill:#26783f;fill-opacity:1;stroke-width:3.04284;stroke-linecap:round;stroke-linejoin:round"
             d="m 282.79102,134.9082 c -0.2016,0.005 -0.40292,0.0342 -0.60352,0.0918 -1.37771,0.39565 -2.6263,1.31226 -3.38477,2.58398 l -9.76386,11.30079 c -0.0355,0.0416 -0.0675,0.086 -0.0957,0.13281 -0.78472,1.21459 -1.13284,2.4711 -1.16992,3.72461 1.43736,0.0665 2.43335,-0.10611 3.89277,-0.69336 2.3391,-0.94126 4.04531,-3.03741 5.26953,-5.67578 1.94964,-0.73554 3.78986,-1.89734 4.90234,-3.82422 0.9312,-1.61288 1.06521,-3.50486 0.70899,-5.34375 0.6598,-0.54484 1.29868,-1.1679 1.78124,-1.94922 -0.50649,-0.21401 -1.0221,-0.35923 -1.5371,-0.34766 z"
             transform="matrix(0.26458334,0,0,0.26458334,0,280.06666)"
             sodipodi:nodetypes="csccccscsccc" />
          <path
             style="color:#000000;fill:#349951;stroke-width:0.805084;stroke-linecap:round;stroke-linejoin:round;-inkscape-stroke:none"
             d="m 64.610994,314.1543 c -0.303272,0.29092 -0.465348,0.70082 -0.388608,1.09766 0.07296,0.37731 0.37862,0.65908 0.710938,0.87891 -0.217042,0.42167 -0.150425,0.84156 0.09566,1.26778 0.246344,0.42668 0.700506,0.71946 1.199219,0.85937 0.28317,0.72855 0.756614,1.18473 1.263543,1.38871 0.52363,0.21071 0.768172,0.0719 1.330798,-0.0682 0.137821,-0.0334 0.224822,-0.16949 0.197266,-0.30859 l -0.949489,-5.22311 c -0.0012,-0.005 -0.0025,-0.009 -0.0039,-0.0137 -0.09968,-0.39384 -0.322035,-0.60257 -0.658293,-0.80692 -0.255176,-0.15508 -0.575366,-0.10788 -0.878906,-0.0391 -0.221588,-0.34561 -0.505391,-0.6012 -0.808555,-0.76766 -0.33537,-0.18415 -0.726611,-0.24575 -1.050787,-0.0586 -0.324176,0.18718 -0.337776,0.38741 -0.345383,0.74136 -0.0076,0.35396 0.119699,0.70751 0.286501,1.05204 z"
             id="path82412"
             sodipodi:nodetypes="cscscsccccscscccc" />
          <path
             id="path83498"
             style="fill:#26783f;fill-opacity:1;stroke-width:3.04284;stroke-linecap:round;stroke-linejoin:round"
             d="m 255.85156,125.84375 c -2.00051,1.42054 -2.93372,3.85928 -2.42383,6.27539 -1.27417,1.2703 -2.18554,2.85966 -2.18554,4.67383 0,2.10863 1.06226,3.84411 2.38476,5.27148 -0.1934,2.51086 0.21775,4.91705 1.78711,6.66407 0.67375,0.74862 1.43679,0.90077 2.25,1.38032 0.96571,-0.0341 1.94424,-0.19951 2.91602,-0.4414 0.52097,-0.12596 0.85002,-0.64022 0.74609,-1.16602 l -4.05273,-20.07173 c -0.004,-0.0177 -0.009,-0.0353 -0.0137,-0.0527 -0.24274,-0.95906 -0.74371,-1.82875 -1.40821,-2.5332 z"
             transform="matrix(0.26458334,0,0,0.26458334,0,280.06666)"
             sodipodi:nodetypes="ccscccccccsc" />
          <path
             style="color:#000000;fill:#349951;stroke-width:0.805084;stroke-linecap:round;stroke-linejoin:round;-inkscape-stroke:none"
             d="m 72.457031,313.0586 c -0.303539,-0.0688 -0.62373,-0.11601 -0.878906,0.0391 -0.336257,0.20435 -0.599527,0.54172 -0.699219,0.93554 -0.0014,0.005 -0.0027,0.009 -0.0039,0.0137 l -1.070313,5.29327 c -0.02765,0.13848 0.05831,0.27427 0.195307,0.30852 0.562625,0.14006 1.136527,0.18531 1.660156,-0.0254 0.50657,-0.20383 0.760142,-0.60847 1.043316,-1.33609 0.499542,-0.13952 0.956483,-0.43218 1.203125,-0.85937 0.246381,-0.42675 0.27867,-0.87118 0.06058,-1.29311 0.330911,-0.22002 0.636198,-0.50056 0.708984,-0.87696 0.07674,-0.39684 -0.01517,-0.81259 -0.318449,-1.10351 0.166802,-0.34453 0.294096,-0.69809 0.287109,-1.02344 -0.0082,-0.38251 -0.15044,-0.75229 -0.474612,-0.93945 -0.324172,-0.18716 -0.586789,-0.12554 -0.906056,0.0498 -0.319268,0.17531 -0.585525,0.47184 -0.807119,0.81744 z"
             id="path82796"
             sodipodi:nodetypes="ccccccscscscscccc" />
          <path
             id="path83503"
             style="color:#000000;fill:#26783f;fill-opacity:1;stroke-width:3.04284;stroke-linecap:round;stroke-linejoin:round;-inkscape-stroke:none"
             d="m 269.30078,125.8418 c -0.66638,0.70517 -1.16888,1.57432 -1.41211,2.53515 -0.005,0.0174 -0.01,0.035 -0.0137,0.0527 l -4.04688,19.69608 c -0.10447,0.52341 0.22048,1.12501 0.73829,1.25441 0.97092,0.2417 1.95142,0.40708 2.91797,0.4414 0.81314,-0.47953 1.57629,-0.3445 2.25,-1.09306 1.57269,-1.74747 1.98067,-4.15079 1.7871,-6.66407 1.3225,-1.42737 2.38282,-3.16285 2.38282,-5.27148 0,-1.8127 -0.9044,-3.40217 -2.17774,-4.67383 0.50996,-2.41709 -0.42356,-4.85666 -2.42578,-6.27734 z"
             transform="matrix(0.26458334,0,0,0.26458334,0,280.06666)"
             sodipodi:nodetypes="scccccscsccs" />
          <path
             style="color:#000000;fill:#50b86b;stroke-width:0.805084;stroke-linecap:round;stroke-linejoin:round;-inkscape-stroke:none"
             d="m 70.83082,319.05078 c 0.334072,-0.37119 0.446843,-0.92899 0.341797,-1.5918 0.362198,-0.3262 0.606739,-0.75462 0.606739,-1.19921 0,-0.44225 -0.227948,-0.8533 -0.617188,-1.08008 0.321181,-0.63489 0.1749,-1.35439 -0.527408,-1.56055 -0.01869,-0.37084 -0.103916,-0.63149 -0.289063,-0.89733 -0.203479,-0.29217 -0.514071,-0.50391 -0.873044,-0.50391 -0.358973,0 -0.667611,0.21174 -0.871091,0.50391 -0.185146,0.26584 -0.270372,0.52649 -0.289062,0.89733 -0.702638,0.20582 -0.898333,0.93376 -0.577018,1.56882 -0.390151,0.22652 -0.62824,0.62905 -0.62824,1.07181 0,0.44459 0.277406,0.87301 0.639603,1.19921 -0.105046,0.66281 -0.0303,1.02183 0.303795,1.39302 0.353722,0.39303 0.867543,0.78355 1.486325,0.78355 0.618782,0 0.940134,-0.19174 1.293855,-0.58477 z"
             id="path82604"
             sodipodi:nodetypes="cscscccssccsccc" />
          <path
             style="color:#000000;fill:#e2f0fa;stroke-width:0.805084;stroke-linecap:round;stroke-linejoin:round;-inkscape-stroke:none"
             d="m 68.017578,324.30078 c -0.435244,0 -0.792969,0.35773 -0.792969,0.79297 0,0.43524 0.357725,0.79492 0.792969,0.79492 h 2.910156 c 0.435245,0 0.794922,-0.35968 0.794922,-0.79492 0,-0.43524 -0.359677,-0.79297 -0.794922,-0.79297 z"
             id="path83189" />
        </g>
      </g>
      <path
         id="path5460"
         style="color:#000000;fill:#000000;stroke-width:3.04284;stroke-linecap:round;stroke-linejoin:round;-inkscape-stroke:none"
         d="m 243.49826,170.12109 c 0,1.64504 1.36084,2.99805 3.00586,2.99805 h 0.46679 L 246.99805,180 c 2e-5,1.64496 1.35889,3.00391 3.0039,3.00391 0.76468,0 1.46637,-0.29381 1.99805,-0.77344 0.53352,0.48022 1.2387,0.77344 2.00391,0.77344 1.64303,0 2.99282,-1.35575 2.99609,-2.99805 -0.006,-2.51979 -0.0164,-4.79612 0.0332,-6.88672 h 0.46875 c 1.64502,0 2.99805,-1.35301 2.99805,-2.99805 0,-1.73721 -1.1274,-3.0039 -3.04685,-3.0039 0.384,-2.88886 1.07454,-5.45636 2.35743,-8.02539 1.58501,0.70409 3.25089,1.10753 4.96289,0.87304 2.08747,-0.28573 4.10279,-1.65168 5.91406,-4.11132 1.99081,-0.0488 3.96964,-0.71575 5.32227,-2.06836 1.35072,-1.35073 2.05018,-3.18793 1.68164,-4.9668 1.4675,-0.49463 2.88325,-1.27438 3.55078,-2.61328 0.69398,-1.39196 0.63853,-3.05772 -0.17578,-4.42969 0.98618,-1.12811 1.82897,-2.3292 2.14648,-3.55078 0.37021,-1.42428 0.23716,-2.93861 -0.77344,-3.94922 -1.0106,-1.01061 -2.52494,-1.13778 -3.94922,-0.76758 h -0.002 c -1.42428,0.3704 -2.87489,1.23037 -4.14062,2.4961 -0.39172,0.39073 -0.39172,1.02528 0,1.41601 0.39006,0.38782 1.02009,0.38782 1.41015,0 1.03912,-1.0391 2.23609,-1.71954 3.23242,-1.97851 0.99634,-0.2589 1.67503,-0.10408 2.03125,0.25195 0.35622,0.35603 0.50895,1.03294 0.25,2.0293 -0.25897,0.99632 -0.93939,2.19523 -1.97851,3.23437 -0.38948,0.39296 -0.38589,1.02748 0.008,1.41602 0.70878,0.70201 0.71305,1.80504 0.14844,2.9375 -0.56461,1.13246 -1.68476,2.04922 -2.7832,2.14257 -0.68185,0.0571 -1.10625,0.76679 -0.83399,1.39454 0.4149,0.95712 -0.0614,2.34851 -1.24023,3.52734 -1.17885,1.17887 -2.93333,1.96225 -4.42969,1.78711 -0.36485,-0.0448 -0.72484,0.11424 -0.9375,0.41406 -1.63464,2.29803 -3.1851,3.19152 -4.72461,3.40235 -1.16165,0.15902 -2.39958,-0.1438 -3.68164,-0.70118 0.99423,-1.6316 2.26276,-3.26738 3.38281,-4.55468 l 4.20508,-0.35352 c 0.55095,-0.0485 0.95787,-0.53509 0.9082,-1.08594 -0.0486,-0.54763 -0.53019,-0.9533 -1.07812,-0.9082 l -2.00586,0.16992 c 1.39995,-1.42417 3.0152,-2.92261 4.87695,-4.52344 l 4.31055,-0.36328 c 0.54763,-0.0486 0.9533,-0.53019 0.9082,-1.07812 -0.0456,-0.54998 -0.52809,-0.95906 -1.07812,-0.91406 l -1.47071,0.12304 c 0.85249,-0.69314 1.74797,-1.40462 2.68946,-2.13867 0.43357,-0.34066 0.50959,-0.96799 0.16992,-1.40234 -0.38882,-0.49429 -0.98157,-0.48485 -1.40234,-0.16993 -5.80032,4.49411 -12.13084,10.15809 -15.85547,15.72657 -0.83107,-1.94637 -1.02326,-3.75371 0.0644,-5.57617 0.27643,-0.074 0.55014,-0.16474 0.82031,-0.27344 1.91595,-0.77095 3.48443,-2.56092 4.55469,-5.31446 1.88489,-0.52883 3.60019,-1.63539 4.53125,-3.24804 0.93098,-1.6125 1.09695,-3.53635 0.27344,-5.13086 1.256,-0.83085 2.41173,-1.89618 2.6875,-3.32227 0.29004,-1.49986 -0.21119,-3.07038 -1.35743,-4.16992 0.62853,-1.30031 1.11036,-2.64128 1.08399,-3.86914 -0.031,-1.44571 -0.56776,-2.8434 -1.79297,-3.55078 -1.22521,-0.70738 -2.70512,-0.47334 -3.97266,0.22266 -1.14862,0.63069 -2.15762,1.75168 -2.99609,3.0625 -2.37601,-0.83929 -4.54166,0.48073 -5.60742,2.70117 -0.37287,-0.25331 -0.79929,-0.45818 -1.2793,-0.59766 -0.0728,-1.39593 -0.39641,-2.72529 -1.09375,-3.72656 -0.76868,-1.10374 -1.93509,-1.90548 -3.29101,-1.90625 h -0.002 c -1.35593,7.7e-4 -2.53014,0.80251 -3.29883,1.90625 -0.6986,1.00312 -1.0201,2.3355 -1.09179,3.73437 -0.47543,0.13945 -0.90099,0.34082 -1.27149,0.5918 -0.49445,-1.06336 -1.31169,-1.95908 -2.29492,-2.55664 -0.9623,-0.58481 -2.16955,-0.40342 -3.31445,-0.14648 -0.83844,-1.31086 -1.84748,-2.43377 -2.99609,-3.06446 -1.41923,-0.7669 -2.42457,-0.98105 -3.97274,-0.2207 -1.22522,0.70738 -1.76192,2.10507 -1.79297,3.55078 -0.0265,1.22786 0.45546,2.56883 1.08398,3.86914 -1.14622,1.09954 -1.64746,2.67006 -1.35742,4.16992 0.27576,1.42609 1.43149,2.49145 2.6875,3.32227 -0.82454,1.59477 -0.66564,3.51787 0.26563,5.13086 0.93219,1.61461 2.65884,2.72069 4.54687,3.24804 0.87935,2.77807 2.87442,4.77802 5.36914,5.58985 1.08662,1.8224 0.89403,3.62979 0.0625,5.57617 -4.24647,-6.137 -10.38406,-11.43083 -15.85547,-15.72852 -0.43562,-0.34499 -1.06896,-0.26867 -1.41015,0.16993 -0.3379,0.4364 -0.25835,1.06404 0.17773,1.40234 0.94135,0.73395 1.83531,1.44558 2.6875,2.13867 l -1.46875,-0.12304 c -0.55003,-0.045 -1.03253,0.36408 -1.07812,0.91406 -0.0451,0.54793 0.36057,1.0295 0.9082,1.07812 l 4.30859,0.36328 c 1.86095,1.60099 3.47601,3.09907 4.875,4.52344 l -2.00195,-0.16992 c -0.55012,-0.0485 -1.03542,0.35809 -1.08398,0.9082 -0.0496,0.55295 0.36076,1.04045 0.91406,1.08594 l 4.19727,0.35352 c 1.32757,1.51335 2.3952,2.9934 3.38671,4.55859 -1.28011,0.55591 -2.51774,0.85615 -3.67773,0.69727 -1.53951,-0.2109 -3.09779,-1.10432 -4.73242,-3.40235 -0.21125,-0.29717 -0.56749,-0.45583 -0.92969,-0.41406 -1.49636,0.17499 -3.25865,-0.60628 -4.4375,-1.78516 -1.17885,-1.17883 -1.64732,-2.57217 -1.23242,-3.52929 0.27226,-0.62775 -0.15214,-1.33739 -0.83399,-1.39454 -1.09844,-0.0934 -2.21859,-1.00816 -2.7832,-2.14062 -0.5646,-1.13246 -0.56034,-2.23741 0.14844,-2.93945 0.39389,-0.38854 0.39748,-1.02306 0.008,-1.41602 -1.03912,-1.03907 -1.72736,-2.23805 -1.98633,-3.23437 -0.25897,-0.99633 -0.0984,-1.67308 0.25782,-2.0293 0.35622,-0.35603 1.0271,-0.51093 2.02343,-0.25195 0.99634,0.25889 2.20114,0.93941 3.24024,1.97851 0.39006,0.38782 1.02009,0.38782 1.41015,0 0.39172,-0.39073 0.39172,-1.02528 0,-1.41601 -1.26572,-1.26577 -2.71634,-2.12589 -4.14062,-2.4961 -1.42428,-0.37001 -2.93862,-0.24318 -3.94922,0.76758 -1.01061,1.01061 -1.14559,2.52494 -0.77539,3.94922 0.31672,1.21859 1.15832,2.41705 2.14062,3.54297 -0.81781,1.37276 -0.86476,3.0438 -0.16992,4.4375 0.66753,1.3389 2.08328,2.11865 3.55078,2.61328 -0.36854,1.77887 0.3309,3.61607 1.68164,4.9668 1.35263,1.35261 3.33341,2.01975 5.32422,2.06836 1.81127,2.45964 3.82464,3.82544 5.91211,4.11132 1.70957,0.2341 3.37404,-0.16692 4.95703,-0.86914 1.28394,2.56742 1.97889,5.13315 2.36328,8.02149 -1.93869,0 -3.01087,1.59006 -3.05466,3.0039 z m -6.72482,-46.80078 c 0.87406,0.47993 1.82651,1.41065 2.5332,2.63477 0.2773,0.48148 0.89392,0.64463 1.37305,0.36328 2.5665,-0.94123 3.84702,0.69431 4.21289,2.78516 -0.44432,1.07401 -0.41072,2.34686 0.19336,3.54101 -1.47114,0.85712 -2.33203,2.41835 -2.33203,4.08985 0,1.67792 0.97495,3.28488 2.33984,4.51757 -0.40239,2.51309 0.0256,4.61731 1.29102,6.02344 0.3993,0.44368 0.85438,0.82448 1.34961,1.15625 -1.20051,0.13099 -2.29653,0.0443 -3.2461,-0.33789 -1.40523,-0.56546 -2.63542,-1.7614 -3.57226,-4.31836 -0.12712,-0.34872 -0.43691,-0.59836 -0.80469,-0.64844 -1.47447,-0.19275 -2.92922,-1.35583 -3.72852,-2.74023 -0.79929,-1.38444 -0.882,-2.77858 -0.2207,-3.59375 0.44193,-0.53988 0.2092,-1.35494 -0.45117,-1.58008 -1.01391,-0.34809 -1.82222,-1.45833 -2.05274,-2.65039 -0.23051,-1.19203 0.065,-2.23545 0.94532,-2.73828 0.48361,-0.27528 0.64951,-0.89237 0.36914,-1.37305 -0.70673,-1.22407 -1.02532,-2.50893 -1.00391,-3.50586 0.0773,-1.84852 1.47789,-2.29215 2.80469,-1.625 z m 33.26367,1.625 c 0.0215,0.99693 -0.30499,2.28182 -1.01172,3.50586 -0.28037,0.48068 -0.11447,1.09777 0.36914,1.37305 0.88039,0.50286 1.18364,1.54625 0.95313,2.73828 -0.23052,1.19206 -1.03883,2.30211 -2.05274,2.65039 -0.66037,0.22514 -0.8931,1.0402 -0.45117,1.58008 0.66128,0.81513 0.57858,2.21126 -0.2207,3.5957 -0.7993,1.38441 -2.25406,2.54568 -3.72852,2.73828 -0.36998,0.048 -0.68247,0.29803 -0.81055,0.64844 -0.93685,2.55696 -2.16116,3.75486 -3.5664,4.32031 -0.94958,0.38211 -2.04558,0.46689 -3.2461,0.33594 0.49523,-0.33177 0.95031,-0.71257 1.34961,-1.15625 1.26552,-1.40613 1.69341,-3.51035 1.29102,-6.02344 1.36489,-1.23269 2.33984,-2.83965 2.33984,-4.51757 0,-1.67343 -0.86525,-3.23371 -2.33984,-4.08985 0.60321,-1.19214 0.64067,-2.46495 0.20117,-3.53906 0.59667,-2.31692 2.22207,-3.25067 4.21289,-2.78711 0.52549,0.12933 1.12241,0.0609 1.37305,-0.36133 0.70672,-1.22407 1.65913,-2.15679 2.5332,-2.63672 1.92462,-0.91241 2.69225,-0.15003 2.80469,1.625 z m -18.0332,-1.83789 c 0.57622,0 1.15465,0.33236 1.65234,1.04688 0.49769,0.71459 0.84961,1.78417 0.84961,2.96875 0.002,0.55226 0.45165,0.9982 1.00391,0.99609 2.15867,-0.008 3.14151,2.92485 1.78515,4.28125 -0.52375,0.52621 -0.31176,1.41953 0.39258,1.6543 1.02565,0.34167 1.56445,1.36237 1.56445,2.67969 0,1.31731 -0.6208,2.75633 -1.80078,3.54296 -0.33678,0.22388 -0.50558,0.62855 -0.42773,1.02539 0.45726,2.28632 0.0263,3.62215 -0.88672,4.63672 -0.69421,0.77134 -1.80926,1.33823 -3.13672,1.77735 v -5.18164 l 2.70898,-2.70899 c 0.39172,-0.39073 0.39172,-1.02528 0,-1.41601 -0.18862,-0.18659 -0.44366,-0.29058 -0.70898,-0.28907 -0.26532,-0.002 -0.52036,0.10248 -0.70898,0.28907 L 253,139.70508 c 0.005,-1.71636 0,-3.43713 0,-5.16406 l 2.70898,-2.7168 c 0.38783,-0.39006 0.38783,-1.0201 0,-1.41016 -0.18766,-0.18874 -0.44282,-0.29488 -0.70898,-0.29492 -0.26616,4e-5 -0.52132,0.10618 -0.70898,0.29492 L 253,131.70508 v -2.70703 c -0.002,-0.54924 -0.44685,-0.99396 -0.99609,-0.9961 -0.55305,-0.003 -1.00371,0.44304 -1.00586,0.9961 v 7.70312 l -1.29102,-1.28906 c -0.18766,-0.18874 -0.44282,-0.29488 -0.70898,-0.29492 -0.26345,0.002 -0.51542,0.10809 -0.70117,0.29492 -0.39303,0.39095 -0.39303,1.02702 0,1.41797 l 2.70117,2.69922 v 8.18359 c -1.32381,-0.43873 -2.43615,-1.00371 -3.12891,-1.77344 -0.9131,-1.01457 -1.34397,-2.3504 -0.88672,-4.63672 0.0779,-0.39684 -0.0909,-0.80151 -0.42773,-1.02539 -1.17998,-0.78663 -1.80078,-2.22565 -1.80078,-3.54296 0,-1.31732 0.5388,-2.33783 1.56445,-2.67969 0.70434,-0.23477 0.91633,-1.12809 0.39258,-1.6543 -1.35625,-1.35628 -0.37324,-4.28994 1.78515,-4.28125 0.55226,0.002 1.0017,-0.44383 1.00391,-0.99609 0,-1.18458 0.35192,-2.25416 0.84961,-2.96875 0.49769,-0.71464 1.07807,-1.04688 1.6543,-1.04688 z m -14.28516,5.26953 c -0.45137,0.31517 -0.56311,0.93588 -0.25,1.38867 0.93846,1.33781 1.81469,2.62166 2.62695,3.85352 0.30581,0.4614 0.92827,0.58659 1.38868,0.2793 0.45536,-0.30536 0.57994,-0.92043 0.27929,-1.37891 -0.82418,-1.24996 -1.70812,-2.54688 -2.65625,-3.89844 -0.36237,-0.49337 -0.94334,-0.51772 -1.38867,-0.24414 z m 27.17969,0.24419 c -0.94815,1.35156 -1.83207,2.64848 -2.65625,3.89844 -0.30065,0.45848 -0.17607,1.07355 0.27929,1.37891 0.46041,0.30729 1.08287,0.1821 1.38868,-0.2793 0.81225,-1.23182 1.68262,-2.51571 2.62109,-3.85352 0.31431,-0.45127 0.20524,-1.07166 -0.24414,-1.38867 -0.57041,-0.35695 -1.12625,-0.11726 -1.38867,0.24414 z m -11.40821,21.10547 c 1.01909,0.65218 2.55389,0.74266 3.625,0.76758 -0.89849,2.52498 -0.21151,5.14556 1.03125,7.48047 -1.49598,2.94125 -2.29496,5.90273 -2.70703,9.14258 H 253 V 149.877 c 0.16457,-0.0478 0.32857,-0.0982 0.49023,-0.15039 z m -2.96484,0.002 c 0.15605,0.0503 0.3139,0.10029 0.47266,0.14648 v 17.24219 h -2.42969 c -0.41222,-3.24422 -1.2137,-6.20645 -2.71289,-9.15039 1.24032,-2.33318 1.92522,-4.95023 1.02734,-7.47266 1.40268,0.0295 2.54683,-0.34218 3.64258,-0.76562 z m 6.97652,19.38867 c 0.56412,0 0.9961,0.43981 0.9961,1.0039 0,0.56414 -0.43198,0.99805 -0.9961,0.99805 h -10.99804 c -0.56412,0 -1.00391,-0.43391 -1.00391,-0.99805 0,-0.56409 0.43979,-1.0039 1.00391,-1.0039 z m -8.53511,4.00195 h 2.03125 V 180 c -1e-5,0.56406 -0.43199,1.00391 -0.9961,1.00391 -0.5641,0 -1.0039,-0.43985 -1.0039,-1.00391 z m 4.0332,0 h 2.03711 c -0.0507,2.11602 -0.0431,4.38726 -0.0371,6.88672 -0.003,0.56113 -0.43402,0.99805 -0.99609,0.99805 -0.56411,0 -1.0039,-0.43985 -1.00391,-1.00391 z"
         transform="matrix(0.26458334,0,0,0.26458334,0,280.06666)"
         sodipodi:nodetypes="csccscsccscccccscscssccccccssccsccscccccccccccccccccccccscscssscccssssccscccccscscccccccccccccccccsccsccsccscccccccscscscsccccccccscsccccsccscccccccsccsccscscsccccccssccccsccscccccccccscccccccccccccsccsscccsscccccccccccccccccccccccccccccsccscccccscccccscc" />
    </g>
  </g>
</svg>
